<svg xmlns="http://www.w3.org/2000/svg" xmlns:xlink="http://www.w3.org/1999/xlink" width="1920" height="6530" viewBox="0 0 1920 6530"><defs><style>.a{fill:none;stroke:#707070;}.b{opacity:0.104;clip-path:url(#a);}.c{fill:#bfbfbf;}</style><clipPath id="a"><rect class="a" width="1920" height="6530" transform="translate(2378 1526)"/></clipPath></defs><g class="b" transform="translate(-2378 -1526)"><g transform="translate(4337.333 1341.513) rotate(90)"><g transform="translate(-105.289 1035.763)"><path class="c" d="M-68.948,723.751a1,1,0,0,1-.425-.09,1.123,1.123,0,0,1-.705-.976l-35.209-572.615a1.139,1.139,0,0,1,1.021-1.2,1.1,1.1,0,0,1,.913.343L261.824,425.593a1.149,1.149,0,0,1,.443.85,1.113,1.113,0,0,1-.371.895L-68.189,723.462A1.2,1.2,0,0,1-68.948,723.751ZM-102.883,152.4l34.92,567.815L259.365,426.569Z" transform="translate(105.289 -148.861)"/></g><g transform="translate(-15.525 951.759)"><path class="c" d="M181.3,502.329a1.112,1.112,0,0,1-.895-.443L-95.133,141.41a1.179,1.179,0,0,1-.226-.687V140.7a1.126,1.126,0,0,1,.461-.913,1.086,1.086,0,0,1,.994-.172L187.685,225.8a1.126,1.126,0,0,1,.8,1.112l-6.047,274.312a1.127,1.127,0,0,1-.777,1.049A1.19,1.19,0,0,1,181.3,502.329ZM-91.219,142.8,180.246,497.954,186.2,227.719Z" transform="translate(95.359 -139.568)"/></g><g transform="translate(-105.289 951.761)"><path class="c" d="M261.137,502.328a1.112,1.112,0,0,1-.678-.226l-365.3-276.472a1.165,1.165,0,0,1-.443-.85,1.115,1.115,0,0,1,.353-.877l89.762-84.031a1.14,1.14,0,0,1,1.229-.208,1.077,1.077,0,0,1,.542.5L262.041,500.52a1.123,1.123,0,0,1-.9,1.808Zm-363.55-277.693L255.2,495.286l-269.747-352.9Z" transform="translate(105.289 -139.568)"/></g><g transform="translate(266.059 702.74)"><path class="c" d="M-63.083,449.488a1.108,1.108,0,0,1-.913-.479,1.1,1.1,0,0,1-.1-1.139l159.267-335.2a1.12,1.12,0,0,1,1.437-.56,1.208,1.208,0,0,1,.325.2l425.154,265.3a1.129,1.129,0,0,1-.461,2.079L-62.947,449.479ZM96.663,114.8-61.175,446.993l579.34-69.17Z" transform="translate(64.209 -112.02)"/></g><g transform="translate(761.897 302.712)"><path class="c" d="M80.506,735.469H80.5a1.122,1.122,0,0,1-1.112-.976L-9.346,69.042a1.143,1.143,0,0,1,.624-1.166,1.159,1.159,0,0,1,1.3.217l.009.018a1.069,1.069,0,0,1,.2.253L140.266,338.319a1.153,1.153,0,0,1,.127.714L81.618,734.5A1.12,1.12,0,0,1,80.506,735.469ZM-6.3,74.755,80.56,726.24l57.545-387.17Z" transform="translate(9.356 -67.767)"/></g><g transform="translate(425.324 302.712)"><path class="c" d="M379.845,735.469a1.089,1.089,0,0,1-.6-.172L-46.059,469.907a1.12,1.12,0,0,1-.515-.786,1.135,1.135,0,0,1,.244-.9L290.137,68.337a1.178,1.178,0,0,1,.479-.461,1.159,1.159,0,0,1,1.3.217l.009.018a1.114,1.114,0,0,1,.334.8l88.7,665.27a1.14,1.14,0,0,1-1.121,1.284Zm-423.6-266.791L378.408,732.106,290.336,71.6Z" transform="translate(46.59 -67.767)"/></g><g transform="translate(909.397 199.744)"><path class="c" d="M191.572,493.426a1.21,1.21,0,0,1-.362-.054L7.727,431.514a1.14,1.14,0,0,1-.75-1.266L70.515,57.325a1.153,1.153,0,0,1,.533-.786,1.108,1.108,0,0,1,.94-.1H72a1.146,1.146,0,0,1,.732.777L192.657,492a1.128,1.128,0,0,1-.307,1.121A1.158,1.158,0,0,1,191.572,493.426ZM9.363,429.679l180.555,60.863L71.889,62.676Z" transform="translate(-6.961 -56.376)"/></g><g transform="translate(1092.874 232.702)"><path class="c" d="M28.392,464.114a1.126,1.126,0,0,1-1.094-1.437L139.958,60.845a1.123,1.123,0,0,1,1.085-.823h.018a1.2,1.2,0,0,1,.533.136L393.687,196.69a1.136,1.136,0,0,1,.588.922,1.109,1.109,0,0,1-.461.985L29.052,463.9A1.109,1.109,0,0,1,28.392,464.114Zm113.364-401.3L30.354,460.155,391.038,197.829Z" transform="translate(-27.259 -60.022)"/></g><g transform="translate(972.948 199.75)"><path class="c" d="M135.052,493.42h0a1.123,1.123,0,0,1-1.094-.832L14.031,57.808a1.118,1.118,0,0,1,.244-1.04,1.047,1.047,0,0,1,1-.371L247.874,89.347a1.131,1.131,0,0,1,.976,1.193,1.366,1.366,0,0,1-.1.389L136.137,492.6A1.123,1.123,0,0,1,135.052,493.42ZM16.671,58.874l118.39,429.2L246.264,91.4Z" transform="translate(-13.992 -56.377)"/></g><g transform="translate(260.009 1312.272)"><path class="c" d="M-60.179,578.73a1.209,1.209,0,0,1-.461-.1,1.148,1.148,0,0,1-.669-1.022L-64.852,180.8a1.025,1.025,0,0,1-.009-.407,1.124,1.124,0,0,1,.895-.931,1.281,1.281,0,0,1,.886.181l276.87,151.99a1.084,1.084,0,0,1,.579.859,1.116,1.116,0,0,1-.362.967L-59.429,578.441A1.116,1.116,0,0,1-60.179,578.73Zm-2.4-396.228,3.507,392.585L211.3,332.848Z" transform="translate(64.878 -179.45)"/></g><g transform="translate(-70.079 1312.266)"><path class="c" d="M233.393,578.735a1.019,1.019,0,0,1-.325-.054l-333.656-100.9a1.132,1.132,0,0,1-.777-.832,1.132,1.132,0,0,1,.352-1.094L229.072,179.733a1.061,1.061,0,0,1,.533-.262,1.148,1.148,0,0,1,1.374,1.094L234.523,577.6a1.13,1.13,0,0,1-1.13,1.139ZM-98.013,476.2l330.266,99.877-3.516-393.009Z" transform="translate(101.394 -179.45)"/></g><g transform="translate(266.025 1037.948)"><path class="c" d="M207.9,577.728h-.081a1.118,1.118,0,0,1-.868-.524L-64.038,150.839a1.135,1.135,0,0,1-.036-1.148,1.134,1.134,0,0,1,.994-.588h.027a1.08,1.08,0,0,1,.56.145l426.664,244a1.134,1.134,0,0,1,.3,1.717L208.756,577.33A1.136,1.136,0,0,1,207.9,577.728ZM-59.69,153.451,208.033,574.7,361.867,394.543Z" transform="translate(64.212 -149.103)"/></g><g transform="translate(260.007 1037.948)"><path class="c" d="M213.249,577.728a1.149,1.149,0,0,1-.542-.136l-277-152.053a1.141,1.141,0,0,1-.588-1.022l6.047-274.05a1.165,1.165,0,0,1,.108-.777,1.134,1.134,0,0,1,.994-.588h.027a1.142,1.142,0,0,1,.814.334,1.188,1.188,0,0,1,.253.407L214.2,575.993a1.132,1.132,0,0,1-.127,1.383A1.108,1.108,0,0,1,213.249,577.728ZM-62.6,423.885l272.531,149.6L-56.652,154.029Z" transform="translate(64.878 -149.103)"/></g><g transform="translate(692.723 968.139)"><path class="c" d="M-15.883,457.451a1.109,1.109,0,0,1-.877-.434,1.1,1.1,0,0,1-.127-1.2L141.015,142a1.14,1.14,0,0,1,1.13-.615,1.124,1.124,0,0,1,.841.542l178.991,231.79a1.123,1.123,0,0,1-.633,1.781L-15.612,457.415A.936.936,0,0,1-15.883,457.451Zm158.1-312.829L-13.768,454.64,319.12,373.719Z" transform="translate(17.009 -141.38)"/></g><g transform="translate(266.058 968.132)"><path class="c" d="M363.582,457.458a1.137,1.137,0,0,1-.56-.154l-426.664-244a1.117,1.117,0,0,1-.542-1.2,1.123,1.123,0,0,1,.976-.895l584.357-69.776a.994.994,0,0,1,.461-.036,1.127,1.127,0,0,1,.976.85v.018a1.134,1.134,0,0,1-.163.913l-.009.009L364.594,456.834a1.088,1.088,0,0,1-.678.57A1.039,1.039,0,0,1,363.582,457.458ZM-59.547,213.039,363.112,454.755l156.41-310.85Z" transform="translate(64.209 -141.38)"/></g><g transform="translate(909.392 572.683)"><path class="c" d="M128.381,727.244l-.09-.009a1.143,1.143,0,0,1-1.021-.913L6.981,98.991a1.167,1.167,0,0,1,0-.434l.009-.018a1.163,1.163,0,0,1,.732-.85,1.15,1.15,0,0,1,1.1.208l269.81,229.612a1.124,1.124,0,0,1,.325,1.256L129.439,726.512A1.124,1.124,0,0,1,128.381,727.244ZM9.8,101.694,128.734,721.956,276.566,328.711Z" transform="translate(-6.961 -97.633)"/></g><g transform="translate(850.626 572.674)"><path class="c" d="M180.647,727.252a1.113,1.113,0,0,1-.895-.443L.7,494.928a1.125,1.125,0,0,1-.226-.859l58.766-395.4.009-.108.009-.018a1.117,1.117,0,0,1,1.3-.895,1.133,1.133,0,0,1,.931,1.039L181.759,725.9a1.136,1.136,0,0,1-.651,1.247A1.175,1.175,0,0,1,180.647,727.252ZM2.777,493.934l175.872,227.75L60.494,105.534Z" transform="translate(-0.46 -97.632)"/></g><g transform="translate(1092.878 634.534)"><path class="c" d="M114.716,274.49a1.131,1.131,0,0,1-1-.615l-86.3-167.691a1.145,1.145,0,0,1-.009-1.13,1.209,1.209,0,0,1,1.031-.578l451.4,19.019a1.135,1.135,0,0,1,1.058.94,1.111,1.111,0,0,1-.687,1.238L115.141,274.408A1.145,1.145,0,0,1,114.716,274.49ZM30.278,106.816l84.971,165.106L474.56,125.537Z" transform="translate(-27.259 -104.475)"/></g><g transform="translate(909.397 572.681)"><path class="c" d="M277.9,329.5a1.114,1.114,0,0,1-.732-.271L7.357,99.625a1.131,1.131,0,0,1,1.094-1.934l183.483,61.857a1.168,1.168,0,0,1,.579.443l.072.127L278.9,327.854a1.128,1.128,0,0,1-.3,1.4A1.151,1.151,0,0,1,277.9,329.5ZM13.3,101.714,274.284,323.8,190.777,161.546Z" transform="translate(-6.961 -97.633)"/></g><g transform="translate(1457.635 369.237)"><path class="c" d="M155.379,361.7a1.123,1.123,0,0,1-1.076-.8L67.741,76.778a1.158,1.158,0,0,1-.127-.633,1.135,1.135,0,0,1,.877-.994,1.2,1.2,0,0,1,.814.118L191.193,128.4a1.141,1.141,0,0,1,.66,1.211L156.5,360.744a1.134,1.134,0,0,1-1.04.958ZM70.561,78.278l84.456,277.214,34.468-225.363Z" transform="translate(-67.611 -75.126)"/></g><g transform="translate(1092.876 369.234)"><path class="c" d="M479.786,361.7h-.045l-451.4-19.019a1.122,1.122,0,0,1-1.031-.8,1.135,1.135,0,0,1,.416-1.238l364.761-265.3a1.236,1.236,0,0,1,.416-.19,1.149,1.149,0,0,1,1.347.768l86.625,284.328a1.121,1.121,0,0,1-.19,1.021A1.144,1.144,0,0,1,479.786,361.7ZM31.672,340.561l446.568,18.82L392.546,78.091Z" transform="translate(-27.259 -75.126)"/></g><g transform="translate(1579.632 275.75)"><path class="c" d="M82.241,213.717a1.129,1.129,0,0,1-.786-1.944L234.511,65.108l.081-.063.009-.009a1.1,1.1,0,0,1,1.275-.09L352.3,133.04a1.135,1.135,0,0,1-.262,2.061L82.557,213.672A1.332,1.332,0,0,1,82.241,213.717ZM235.469,67.323,86.353,210.21l262.534-76.546Z" transform="translate(-81.107 -64.784)"/></g><g transform="translate(1457.63 275.754)"><path class="c" d="M190.746,213.713a1.121,1.121,0,0,1-.452-.09l-122-53.188a1.127,1.127,0,0,1,.081-2.106L343.45,64.85a1.115,1.115,0,0,1,1.356.524,1.133,1.133,0,0,1-.253,1.392L191.523,213.4A1.125,1.125,0,0,1,190.746,213.713ZM71.877,159.53,190.5,211.245,339.346,68.629Z" transform="translate(-67.61 -64.785)"/></g><g transform="translate(223.973 1464.307)"><path class="c" d="M-67.732,676.588a1.132,1.132,0,0,1-.841-.371,1.13,1.13,0,0,1-.109-1.374L244.347,196.8v-.009l.009-.009a1.079,1.079,0,0,1,1.13-.488,1.14,1.14,0,0,1,.9.823l72.569,277.006a1.119,1.119,0,0,1-.569,1.283l-385.6,201.056A1.07,1.07,0,0,1-67.732,676.588ZM244.853,200.153-64.414,672.448l380.96-198.633Z" transform="translate(68.864 -196.269)"/></g><g transform="translate(223.978 1464.313)"><path class="c" d="M-67.735,676.583a1.1,1.1,0,0,1-.416-.082,1.116,1.116,0,0,1-.7-1.238l39.6-233.074a1.17,1.17,0,0,1,.362-.66l273.426-244.97a1.119,1.119,0,0,1,1.492-.009,1.136,1.136,0,0,1,.2,1.482l-.9-.588h.009l.895.588L-66.8,676.068A1.122,1.122,0,0,1-67.735,676.583Zm40.651-233.625L-65.72,670.3,239.625,204Z" transform="translate(68.864 -196.27)"/></g><g transform="translate(580.365 1281.932)"><path class="c" d="M.9,637.732H.872a1.133,1.133,0,0,1-1.094-.967L-29.428,431.152a1.148,1.148,0,0,1,.09-.624L82.978,176.872a1.068,1.068,0,0,1,1.175-.768,1.122,1.122,0,0,1,1.021,1.121v.018a1.383,1.383,0,0,1-.027.271L2.011,636.81A1.133,1.133,0,0,1,.9,637.732Zm-28.04-206.579L1.035,629.515l80.216-443.16Z" transform="translate(29.438 -176.094)"/></g><g transform="translate(537.006 1281.941)"><path class="c" d="M39.462,637.724a1.124,1.124,0,0,1-1.094-.841l-72.569-277a1.155,1.155,0,0,1,.235-1.022L121.667,176.6a1.184,1.184,0,0,1,1.049-.506,1.122,1.122,0,0,1,1.021,1.121v.018a1.382,1.382,0,0,1-.027.271L40.574,636.8a1.136,1.136,0,0,1-1.067.922ZM-31.859,359.886,39.264,631.369l81.491-450.22Z" transform="translate(34.235 -176.095)"/></g><g transform="translate(580.366 1200.028)"><path class="c" d="M-28.307,504.963a1.133,1.133,0,0,1-.976-.552,1.139,1.139,0,0,1,.3-1.482L420.187,167.383a1.147,1.147,0,0,1,1.763.163,1.038,1.038,0,0,1,.19.552l15.575,123.769a1.129,1.129,0,0,1-.651,1.175l-464.9,211.822A1.1,1.1,0,0,1-28.307,504.963Zm448.44-334.714L-19.2,498.445,435.373,291.324Z" transform="translate(29.438 -167.033)"/></g><g transform="translate(580.369 1200.032)"><path class="c" d="M-28.31,504.96a1.133,1.133,0,0,1-.705-.244,1.139,1.139,0,0,1-.325-1.347L83.011,249.621a1.143,1.143,0,0,1,.768-.642l336.956-81.916a1.142,1.142,0,0,1,.958,2.016L-27.632,504.734A1.132,1.132,0,0,1-28.31,504.96ZM84.855,251.05-25.535,500.341l441.47-329.779Z" transform="translate(29.438 -167.034)"/></g><g transform="translate(1045.268 802.276)"><path class="c" d="M23.121,646.891a1.148,1.148,0,0,1-.723-.262,1.128,1.128,0,0,1-.371-1.148l133.92-521.605a1.13,1.13,0,0,1,1.835-.57l.009.009,353.2,300.942a1.117,1.117,0,0,1,.389,1.012,1.132,1.132,0,0,1-.651.877L23.591,646.792A1.048,1.048,0,0,1,23.121,646.891ZM157.692,126.2,24.8,643.763,508.171,424.818Z" transform="translate(-21.992 -123.032)"/></g><g transform="translate(1029.685 802.276)"><path class="c" d="M36.98,646.891l-.072-.009a1.128,1.128,0,0,1-1.049-.976L20.275,522.065a1.214,1.214,0,0,1,.063-.542L169.806,123.876a1.13,1.13,0,0,1,1.835-.57l.009.009a1.124,1.124,0,0,1,.325,1.256l-.036.1L38.074,646.041A1.132,1.132,0,0,1,36.98,646.891ZM22.553,522.056,37.36,639.741l127.222-495.49Z" transform="translate(-20.268 -123.032)"/></g><g transform="translate(1532.405 653.554)"><path class="c" d="M77.012,558.516a1.3,1.3,0,0,1-.452-.09,1.149,1.149,0,0,1-.678-1.076L87.751,107.7l.009-.108v-.018a1.122,1.122,0,0,1,.958-.976,1.1,1.1,0,0,1,1.2.66L223.551,414.932a1.142,1.142,0,0,1-.253,1.257l-145.5,142A1.086,1.086,0,0,1,77.012,558.516ZM89.875,112.833l-11.661,441.8,142.95-139.515Z" transform="translate(-75.882 -106.579)"/></g><g transform="translate(1179.208 653.551)"><path class="c" d="M391.136,558.519a1.114,1.114,0,0,1-.732-.271L37.2,257.305a1.134,1.134,0,0,1,.307-1.907L402.58,106.662a1.122,1.122,0,0,1,1.112.154,1.142,1.142,0,0,1,.443.994L392.265,557.416a1.122,1.122,0,0,1-.669,1A1.175,1.175,0,0,1,391.136,558.519ZM40.087,256.79l349.982,298.2,11.76-445.583Z" transform="translate(-36.809 -106.579)"/></g><g transform="translate(1579.618 422.416)"><path class="c" d="M180.521,622.074a1.119,1.119,0,0,1-1.112-.922L81.123,82.344a1.135,1.135,0,0,1,.371-1.058,1.113,1.113,0,0,1,1.1-.217h.009a1.117,1.117,0,0,1,.606.488L369.3,550.065a1.1,1.1,0,0,1,.108.949,1.149,1.149,0,0,1-.678.7l-187.813,70.3A1.182,1.182,0,0,1,180.521,622.074ZM84.432,87.895l96.957,531.522,185.273-69.342Z" transform="translate(-81.105 -81.009)"/></g><g transform="translate(1544.276 422.416)"><path class="c" d="M211.953,622.074a1.132,1.132,0,0,1-1.04-.678L77.292,313.728a1.046,1.046,0,0,1-.081-.624L112.537,82.145a1.159,1.159,0,0,1,.389-.859,1.113,1.113,0,0,1,1.1-.217h.009a1.147,1.147,0,0,1,.777,1.039l98.25,538.636a1.139,1.139,0,0,1-.786,1.284A1.34,1.34,0,0,1,211.953,622.074ZM79.489,313.131,209.079,611.5l-95.3-522.482Z" transform="translate(-77.195 -81.009)"/></g><g transform="translate(1849.115 343.854)"><path class="c" d="M128.66,621.645a1.144,1.144,0,0,1-.307-.036,1.12,1.12,0,0,1-.823-1.058L110.952,73.7l-.027-.145a1.121,1.121,0,0,1,.705-1.157,1.3,1.3,0,0,1,.741-.045l330.366,62a1.142,1.142,0,0,1,.832.669,1.1,1.1,0,0,1-.091,1.058L129.6,621.13A1.1,1.1,0,0,1,128.66,621.645ZM113.248,74.82l16.425,542.044L440.667,136.27Z" transform="translate(-110.918 -72.318)"/></g><g transform="translate(1579.633 343.85)"><path class="c" d="M368.33,621.648a1.141,1.141,0,0,1-.967-.533L81.272,152.608a1.135,1.135,0,0,1-.09-.994,1.112,1.112,0,0,1,.741-.678L351.408,72.364a1.14,1.14,0,0,1,1.464,1.04L369.46,620.491a1.134,1.134,0,0,1-.814,1.112A.955.955,0,0,1,368.33,621.648ZM83.966,152.689,367.064,616.3,350.658,74.932Z" transform="translate(-81.107 -72.318)"/></g><g transform="translate(580.365 1535.711)"><path class="c" d="M50.527,627.79a1.2,1.2,0,0,1-.353-.054,1.144,1.144,0,0,1-.759-.868l-78.77-421.149a1.3,1.3,0,0,1-.081-.533,1.18,1.18,0,0,1,1.347-1l453.131,77.233a1.125,1.125,0,0,1,.895.786,1.149,1.149,0,0,1-.316,1.148L51.3,627.492A1.127,1.127,0,0,1,50.527,627.79Zm-77.4-421.113L51.259,624.455l371.134-341.2Z" transform="translate(29.438 -204.169)"/></g><g transform="translate(580.365 1535.735)"><path class="c" d="M50.527,627.77a1.137,1.137,0,0,1-1.1-.877L-.2,411.129l-29.225-205.7a1.161,1.161,0,0,1,.262-.9,1.188,1.188,0,0,1,1.989.533L51.639,626.432a1.142,1.142,0,0,1-.877,1.32A2.211,2.211,0,0,1,50.527,627.77ZM-20.008,255.65,2.021,410.723,39.336,572.945Z" transform="translate(29.438 -204.171)"/></g><g transform="translate(1033.524 1323.884)"><path class="c" d="M21.824,472.051a1.172,1.172,0,0,1-.569-.154,1.136,1.136,0,0,1-.56-1.022L32.436,181.838l.009-.045v-.027a1.117,1.117,0,0,1,.705-.958,1.179,1.179,0,0,1,1.175.208L219,347.017a1.094,1.094,0,0,1,.371.931,1.126,1.126,0,0,1-.524.859L22.42,471.879A1.17,1.17,0,0,1,21.824,472.051ZM34.6,184.306,23.035,468.824,216.381,347.685Z" transform="translate(-20.693 -180.735)"/></g><g transform="translate(580.366 1323.884)"><path class="c" d="M424.85,472.051l-.19-.018L-28.5,394.79a1.132,1.132,0,0,1-.931-.967,1.136,1.136,0,0,1,.651-1.175l464.91-211.822a1.187,1.187,0,0,1,1.112.108,1.14,1.14,0,0,1,.479,1.013L425.98,470.957a1.143,1.143,0,0,1-1.13,1.094Zm-449.344-78.87,448.268,76.411,11.616-285.946Z" transform="translate(29.438 -180.735)"/></g><g transform="translate(1229.944 1103.232)"><path class="c" d="M43.552,545.221a1.126,1.126,0,0,1-.886-1.826L345.1,156.758a1.2,1.2,0,0,1,.651-.407h.018a1.129,1.129,0,0,1,1.338.8L422.378,430.22a1.128,1.128,0,0,1-.759,1.383L43.877,545.175A1.226,1.226,0,0,1,43.552,545.221ZM345.515,159.9,46.643,541.985,419.91,429.76Z" transform="translate(-42.422 -156.325)"/></g><g transform="translate(1045.273 1103.234)"><path class="c" d="M207.793,545.219a1.115,1.115,0,0,1-.75-.289L22.366,378.938A1.121,1.121,0,0,1,22,377.925a1.1,1.1,0,0,1,.651-.859l487.029-220.6a1.539,1.539,0,0,1,.307-.118h.018a1.146,1.146,0,0,1,1.32.741,1.161,1.161,0,0,1-.3,1.184L208.688,544.794a1.126,1.126,0,0,1-.786.425ZM25.16,378.414l182.5,164.03L506.5,160.39Z" transform="translate(-21.993 -156.325)"/></g><g transform="translate(1607.68 961.228)"><path class="c" d="M85.345,557.943a1.124,1.124,0,0,1-1.121-1.32l70.21-414.885v-.072a1.146,1.146,0,0,1,1.3-1.039l416.377,59.4a1.128,1.128,0,0,1,.506,2.025L86,557.727A1.13,1.13,0,0,1,85.345,557.943ZM156.5,143.022,86.917,554.264l482.121-352.4Z" transform="translate(-84.209 -140.616)"/></g><g transform="translate(1532.401 961.239)"><path class="c" d="M152.3,557.933a1.131,1.131,0,0,1-1.094-.832L75.921,284.037a1.133,1.133,0,0,1,.307-1.112l145.5-142a1.164,1.164,0,0,1,1.654.081,1.124,1.124,0,0,1,.262.913L153.408,556.993a1.127,1.127,0,0,1-1.058.94ZM78.281,284.082,152.025,551.6l68.818-406.65Z" transform="translate(-75.882 -140.617)"/></g><g transform="translate(1865.714 874.516)"><path class="c" d="M342.461,279.387a1.15,1.15,0,0,1-.56-.145l-228.572-129.7a1.112,1.112,0,0,1-.533-1.266,1.129,1.129,0,0,1,1.085-.85h.018l333.458-16.4a1.055,1.055,0,0,1,1.049.588,1.117,1.117,0,0,1-.072,1.193L343.383,278.916A1.14,1.14,0,0,1,342.461,279.387ZM117.83,149.507,342.135,276.774,445.122,133.4Z" transform="translate(-112.755 -131.023)"/></g><g transform="translate(1677.907 890.921)"><path class="c" d="M509.491,264.8l-.163-.009-416.386-59.4a1.123,1.123,0,0,1-.958-.994,1.138,1.138,0,0,1,.723-1.184l187.723-70.255a1.073,1.073,0,0,1,.479-.118h.018a1.184,1.184,0,0,1,.651.208L510.052,262.681a1.133,1.133,0,0,1-.56,2.115ZM97.643,203.78l406.1,57.925L280.819,135.215Z" transform="translate(-91.978 -132.838)"/></g><g transform="translate(2179.568 405.879)"><path class="c" d="M168.275,550.083a1.13,1.13,0,0,1-.759-.3,1.154,1.154,0,0,1-.371-.786L147.476,80.356a1.151,1.151,0,0,1,.949-1.166h.027a1.152,1.152,0,0,1,1.211.642l210.3,459.052a1.133,1.133,0,0,1-.967,1.6l-190.67,9.6Zm-18.3-464.141L169.36,547.76,357.218,538.3Z" transform="translate(-147.475 -79.18)"/></g><g transform="translate(1865.723 405.871)"><path class="c" d="M113.889,566.488a1.119,1.119,0,0,1-.949-1.736L426.692,79.893a1.132,1.132,0,0,1,.859-.7h.027a1.119,1.119,0,0,1,1.13.5,1.093,1.093,0,0,1,.163.814l19.661,468.4a1.137,1.137,0,0,1-1.076,1.184l-333.512,16.4ZM426.755,83.943,116.032,564.129l330.194-16.244Z" transform="translate(-112.756 -79.179)"/></g><g transform="translate(2389.906 148.447)"><path class="c" d="M171.875,769.437a1.116,1.116,0,0,1-1.13-1.175l31.3-716.478a1.116,1.116,0,0,1,.994-1.067,1.089,1.089,0,0,1,1.22.814L325.113,481.259a1.112,1.112,0,0,1-.09.832L172.87,768.841A1.135,1.135,0,0,1,171.875,769.437ZM203.993,58.943l-30.77,704.42L322.817,481.43Z" transform="translate(-170.744 -50.701)"/></g><g transform="translate(2179.6 148.455)"><path class="c" d="M358.917,769.43a1.141,1.141,0,0,1-1.03-.66l-210.3-459.043a1.131,1.131,0,0,1,.2-1.247L389.389,51.053a1.132,1.132,0,0,1,1.952.823l-31.3,716.469a1.128,1.128,0,0,1-.9,1.067ZM149.951,309.474l208.035,454.1L388.955,54.823Z" transform="translate(-147.479 -50.702)"/></g><g transform="translate(2542.06 38.543)"><path class="c" d="M188.706,580.432a1.129,1.129,0,0,1-1.022-1.609L444.831,39.194a1.107,1.107,0,0,1,1.238-.624h.018a1.142,1.142,0,0,1,.877.841L556.179,480.772a1.121,1.121,0,0,1-.8,1.356L189,580.4A1.016,1.016,0,0,1,188.706,580.432ZM445.518,42.981l-254.742,534.6L553.72,480.239Z" transform="translate(-187.576 -38.543)"/></g><g transform="translate(2421.198 38.55)"><path class="c" d="M296.2,580.426h-.1a1.131,1.131,0,0,1-.986-.823L174.246,149.876a1.131,1.131,0,0,1,.777-1.383L552.883,38.636a1.227,1.227,0,0,1,.678-.072h.018a1.145,1.145,0,0,1,.913,1.067,1.131,1.131,0,0,1-.226.723L297.219,579.784A1.127,1.127,0,0,1,296.2,580.426ZM176.723,150.346,296.469,576.1,551.228,41.474Z" transform="translate(-174.206 -38.544)"/></g><g transform="translate(2908.434 165.421)"><path class="c" d="M229.233,369.332a1.133,1.133,0,0,1-1.021-1.6L376.7,91.693a1.206,1.206,0,0,1,.226-.334l.018-.009a1.122,1.122,0,0,1,1.338-.19L800.356,52.579a1.142,1.142,0,0,1,.1,1.925L229.884,369.124A1.136,1.136,0,0,1,229.233,369.332ZM378.267,93.718,231.972,364.9l565.7-311.211Z" transform="translate(-228.106 -52.579)"/></g><g transform="translate(2799.226 38.615)"><path class="c" d="M326.36,482.109l-.1-.009a1.138,1.138,0,0,1-.994-.85L216.06,39.889a1.121,1.121,0,0,1,.723-1.338L474.5,203.856a1.134,1.134,0,0,1,1.347,1.645L327.39,481.44A1.13,1.13,0,0,1,326.36,482.109ZM218.492,40.35,326.676,477.544,472.745,206.857Z" transform="translate(-216.025 -38.551)"/></g><g transform="translate(1207.813 1489.902)"><path class="c" d="M41.106,562.68a1.145,1.145,0,0,1-.8-.326,1.118,1.118,0,0,1-.334-.877l22.147-361.1a1.069,1.069,0,0,1,.045-.533,1.185,1.185,0,0,1,1.862-.461l433.434,323.4a1.113,1.113,0,0,1,.407,1.22,1.145,1.145,0,0,1-.994.813L41.2,562.671Zm23.159-360.3L42.308,560.311l451.414-37.5Z" transform="translate(-39.974 -199.101)"/></g><g transform="translate(1033.521 1489.875)"><path class="c" d="M196.117,562.7a1.152,1.152,0,0,1-.913-.461L20.914,323.953a1.082,1.082,0,0,1-.2-.877,1.138,1.138,0,0,1,.506-.741L217.649,199.263a1.166,1.166,0,0,1,1.437.19,1.115,1.115,0,0,1,.316.841L197.238,561.646a1.132,1.132,0,0,1-.8,1.012A1.333,1.333,0,0,1,196.117,562.7ZM23.454,323.6,195.177,558.374l21.839-356.047Z" transform="translate(-20.693 -199.098)"/></g><g transform="translate(1607.682 1376.297)"><path class="c" d="M141.153,625.851a1.2,1.2,0,0,1-.352-.054,1.151,1.151,0,0,1-.768-.931L84.259,187.987a1.128,1.128,0,0,1,1.645-1.3,1.335,1.335,0,0,1,.343.3L311.981,444.925a1.147,1.147,0,0,1-.027,1.528L141.976,625.5A1.143,1.143,0,0,1,141.153,625.851ZM86.943,191.214l55.032,431L309.6,445.64Z" transform="translate(-84.21 -186.533)"/></g><g transform="translate(1229.951 1376.303)"><path class="c" d="M477.1,625.846a1.087,1.087,0,0,1-.669-.226L42.877,302.133a1.1,1.1,0,0,1-.434-1.094,1.088,1.088,0,0,1,.786-.886L420.962,186.581a1.124,1.124,0,0,1,.886.1,1.147,1.147,0,0,1,.569.85l55.8,437.041a1.117,1.117,0,0,1-.552,1.121A1.145,1.145,0,0,1,477.1,625.846ZM46.022,301.672,475.642,622.221l-55.295-433.1Z" transform="translate(-42.423 -186.534)"/></g><g transform="translate(1833.474 1020.619)"><path class="c" d="M110.317,763.136a1.048,1.048,0,0,1-.642-.208,1.118,1.118,0,0,1-.4-1.365l260.789-613.69a1.136,1.136,0,0,1,1.039-.687h.027a1.13,1.13,0,0,1,1.012.642l122.123,249.9a1.128,1.128,0,0,1-.235,1.311L111.095,762.829A1.158,1.158,0,0,1,110.317,763.136ZM371.188,151.01,113.481,757.432,491.874,397.968Z" transform="translate(-109.188 -147.186)"/></g><g transform="translate(1607.681 1020.619)"><path class="c" d="M311.132,763.136a1.109,1.109,0,0,1-.85-.389l-225.788-258a1.137,1.137,0,0,1-.28-.868,1.149,1.149,0,0,1,.461-.8L571.117,147.52a1.142,1.142,0,0,1,.8-.334h.027a1.134,1.134,0,0,1,1.076.786,1.122,1.122,0,0,1-.145.985L312.172,762.449a1.126,1.126,0,0,1-.859.669ZM87.007,504.182,310.8,759.9,569.264,151.679Z" transform="translate(-84.209 -147.186)"/></g><g transform="translate(2199.238 874.518)"><path class="c" d="M167.956,529.29a1.128,1.128,0,0,1-.588-.163,1.115,1.115,0,0,1-.542-.922L149.678,132.412a1.15,1.15,0,0,1,.859-1.365,1.149,1.149,0,0,1,1.338.768l168.6,324.834a1.12,1.12,0,0,1-.524,1.546l-151.52,70.987A1.055,1.055,0,0,1,167.956,529.29Zm-15.8-392.042L169,526.416l148.916-69.767Z" transform="translate(-149.651 -131.023)"/></g><g transform="translate(2094.289 874.514)"><path class="c" d="M261.295,529.294a1.137,1.137,0,0,1-1.021-.642l-122.114-249.9a1.135,1.135,0,0,1,.09-1.157L243.207,131.5a1.147,1.147,0,0,1,.669-.452,1.13,1.13,0,0,1,.94.208,1.1,1.1,0,0,1,.452.85l17.157,396a1.145,1.145,0,0,1-.859,1.148A1.4,1.4,0,0,1,261.295,529.294ZM140.482,278.367,259.93,522.794,243.153,135.443Z" transform="translate(-138.041 -131.023)"/></g><g transform="translate(2367.923 864.921)"><path class="c" d="M169.443,466.838a1.09,1.09,0,0,1-.6-.172,1.146,1.146,0,0,1-.533-1.031L190.288,131.03a1.14,1.14,0,0,1,.416-.814l.009-.009a1.063,1.063,0,0,1,.814-.235L673.385,174.2a1.127,1.127,0,0,1,.47,2.1L170.012,466.693A1.16,1.16,0,0,1,169.443,466.838Zm23.024-334.515L170.708,463.674,669.634,176.128Z" transform="translate(-168.312 -129.962)"/></g><g transform="translate(2199.236 864.923)"><path class="c" d="M319.469,466.836a1.13,1.13,0,0,1-1-.606L149.78,141.207a1.087,1.087,0,0,1,.027-1.076,1.118,1.118,0,0,1,.922-.569l190.661-9.6a1.13,1.13,0,0,1,1.112.732,1.065,1.065,0,0,1,.054.624L320.6,465.779a1.144,1.144,0,0,1-.895,1.04A2.058,2.058,0,0,1,319.469,466.836Zm-166.878-325.1L318.61,461.593l21.622-329.308Z" transform="translate(-149.651 -129.962)"/></g><g transform="translate(2542.058 578.176)"><path class="c" d="M518.414,431.477a1.158,1.158,0,0,1-.8-.325L187.9,100.18a1.126,1.126,0,0,1-.208-1.3V98.87a1.152,1.152,0,0,1,1.148-.624l661.717,83.38a1.129,1.129,0,0,1,.533,2.025l-332,247.6A1.131,1.131,0,0,1,518.414,431.477ZM191.809,100.9,518.523,428.856,847.5,183.524Z" transform="translate(-187.576 -98.24)"/></g><g transform="translate(2389.903 578.177)"><path class="c" d="M653.737,431.476h-.109L171.77,387.246a1.154,1.154,0,0,1-.886-.588,1.117,1.117,0,0,1-.009-1.067L323.036,98.842a1.125,1.125,0,0,1,1.509-.479,1.184,1.184,0,0,1,.38.316L654.541,429.551a1.114,1.114,0,0,1,.217,1.275A1.135,1.135,0,0,1,653.737,431.476ZM173.668,385.149l477.068,43.787L324.3,101.255Z" transform="translate(-170.744 -98.24)"/></g><g transform="translate(2908.407 479.913)"><path class="c" d="M524.595,271.269a1.081,1.081,0,0,1-.588-.172L228.642,89.458a1.127,1.127,0,0,1,.6-2.088h.018a1.15,1.15,0,0,1,.307.036l213.928,59.082a1.141,1.141,0,0,1,.642.461l81.409,122.566a1.133,1.133,0,0,1-.949,1.754ZM236.588,91.691l284.228,174.8L442.48,148.549Z" transform="translate(-228.104 -87.37)"/></g><g transform="translate(2542.058 479.913)"><path class="c" d="M850.417,271.269l-.136-.009L188.563,187.88a1.126,1.126,0,0,1-.154-2.206L554.654,87.442a1.2,1.2,0,0,1,.407-.072h.018a1.15,1.15,0,0,1,.732.262l295.2,181.549a1.128,1.128,0,0,1-.6,2.088ZM194.566,186.361l650.816,82.006L554.889,89.72Z" transform="translate(-187.576 -87.37)"/></g><g transform="translate(3122.365 165.319)"><path class="c" d="M252.906,428.495a1.161,1.161,0,0,1-.9-.434,1.14,1.14,0,0,1,.009-1.383L608.564,53.112a.815.815,0,0,1,.126-.181,1.183,1.183,0,0,1,1.88.235,1.209,1.209,0,0,1,.117.479L653.2,257.9a1.141,1.141,0,0,1-.669,1.22L253.34,428.414A1.19,1.19,0,0,1,252.906,428.495ZM608.836,56.448,256.449,424.635,650.833,257.378Z" transform="translate(-251.773 -52.568)"/></g><g transform="translate(2908.433 165.297)"><path class="c" d="M443.171,428.514a1.187,1.187,0,0,1-.307-.036L228.935,369.4a1.128,1.128,0,0,1-.343-2.016L799.164,52.752a1.185,1.185,0,0,1,1.672.434,1.14,1.14,0,0,1-.118,1.193l-356.653,373.7A1.144,1.144,0,0,1,443.171,428.514ZM231.846,367.859,442.737,426.1,794.382,58.872Z" transform="translate(-228.106 -52.565)"/></g><g transform="translate(1805.616 1270.522)"><path class="c" d="M107.234,635.9a1.13,1.13,0,0,1-.976-.561,1.147,1.147,0,0,1,.136-1.329L517.111,175.3a1.182,1.182,0,0,1,.289-.271,1.146,1.146,0,0,1,1.491.19,1.1,1.1,0,0,1,.226.416l160.4,328.477a1.12,1.12,0,0,1,.009.976,1.157,1.157,0,0,1-.768.624L107.487,635.875A1.214,1.214,0,0,1,107.234,635.9ZM517.753,177.971,110.443,632.883,676.866,503.817Z" transform="translate(-106.106 -174.832)"/></g><g transform="translate(1805.615 1270.622)"><path class="c" d="M107.235,635.813a1.194,1.194,0,0,1-.551-.145,1.14,1.14,0,0,1-.533-1.311l27.86-95.014a1.129,1.129,0,0,1,.307-.506L517.248,175.053a1.262,1.262,0,0,1,1.573.136,1.05,1.05,0,0,1,.072,1.428L108.076,635.434A1.127,1.127,0,0,1,107.235,635.813Zm28.854-95.547L109.73,630.2,498.717,195.753Z" transform="translate(-106.106 -174.843)"/></g><g transform="translate(2367.915 1199.535)"><path class="c" d="M178.408,568.867a1.208,1.208,0,0,1-.316-.045,1.14,1.14,0,0,1-.814-1.058l-8.967-399.626a1.129,1.129,0,0,1,1.636-1.039h.009a1.365,1.365,0,0,1,.316.235L332.658,339.707a1.132,1.132,0,0,1,.108,1.41L179.339,568.37A1.111,1.111,0,0,1,178.408,568.867Zm-7.765-397.846,8.814,393.136L330.389,340.6Z" transform="translate(-168.311 -166.979)"/></g><g transform="translate(2216.404 1199.531)"><path class="c" d="M313.158,568.871a1.124,1.124,0,0,1-1.012-.642L151.667,239.59a1.111,1.111,0,0,1-.054-.868,1.17,1.17,0,0,1,.6-.651l151.384-70.924a1.117,1.117,0,0,1,1.1-.045h.009a1.134,1.134,0,0,1,.624,1.031l-.009.1,8.967,399.482a1.131,1.131,0,0,1-.868,1.121A.837.837,0,0,1,313.158,568.871ZM154.2,239.635,311.91,562.616l-8.8-392.739Z" transform="translate(-151.55 -166.978)"/></g><g transform="translate(2530.305 909.155)"><path class="c" d="M187.41,599.872a1.108,1.108,0,0,1-.823-.353,1.123,1.123,0,0,1-.09-1.446L527.936,135.315a1.108,1.108,0,0,1,.669-.425l.018-.009a1.143,1.143,0,0,1,.859.154,1.12,1.12,0,0,1,.488.723l42.7,211.235a1.131,1.131,0,0,1-.488,1.175L188.024,599.682A1.115,1.115,0,0,1,187.41,599.872ZM528.262,138.687,192.047,594.349,570.3,346.694Z" transform="translate(-186.276 -134.855)"/></g><g transform="translate(2367.923 909.151)"><path class="c" d="M331.828,599.875a1.113,1.113,0,0,1-.823-.353L168.62,427.148a1.123,1.123,0,0,1,.262-1.754L672.607,135.083a.878.878,0,0,1,.416-.19l.018-.009a1.114,1.114,0,0,1,1.293.7,1.128,1.128,0,0,1-.253,1.211L332.732,599.414a1.151,1.151,0,0,1-.841.461ZM171.251,426.633,331.72,596.982l337.417-457.3Z" transform="translate(-168.312 -134.855)"/></g><g transform="translate(2914.463 661.561)"><path class="c" d="M229.9,568.552a1.111,1.111,0,0,1-.678-.226,1.13,1.13,0,0,1-.271-1.51l289.236-458.7a1.139,1.139,0,0,1,1.13-.651,1.113,1.113,0,0,1,1.022,1.139l-1.889,144.442a1.143,1.143,0,0,1-.289.75L230.74,568.19A1.137,1.137,0,0,1,229.9,568.552ZM518.033,112.6,237.61,557.316,516.2,252.586Z" transform="translate(-228.773 -107.465)"/></g><g transform="translate(2871.764 661.553)"><path class="c" d="M267.876,568.559l-.2-.018a1.129,1.129,0,0,1-.9-.886L224.07,356.42a1.141,1.141,0,0,1,.434-1.13l332.011-247.6a1.133,1.133,0,0,1,1.265-.063,1.145,1.145,0,0,1,.524,1.148,1.3,1.3,0,0,1-.163.452L268.834,568.035A1.117,1.117,0,0,1,267.876,568.559ZM226.43,356.674l42,207.773,284.59-451.323Z" transform="translate(-224.05 -107.464)"/></g><g transform="translate(3122.341 538.985)"><path class="c" d="M497.273,379.536h-.108L332.33,363.174a1.145,1.145,0,0,1-.976-.8L251.815,95.361a1.157,1.157,0,0,1,.244-1.085,1.121,1.121,0,0,1,1.04-.353h.027a1.143,1.143,0,0,1,.651.38L498.132,377.664a1.132,1.132,0,0,1-.859,1.871ZM333.306,361,494.57,377,255.476,99.737Z" transform="translate(-251.77 -93.905)"/></g><g transform="translate(3122.341 538.985)"><path class="c" d="M332.438,363.183a1.148,1.148,0,0,1-1.085-.814L251.815,95.361a1.157,1.157,0,0,1,.244-1.085,1.121,1.121,0,0,1,1.04-.353h.027a1.171,1.171,0,0,1,.741.488l81.409,122.566a1.084,1.084,0,0,1,.181.642l-1.889,144.442a1.128,1.128,0,0,1-.967,1.112ZM256.127,101.9l75.281,252.726,1.79-136.686Z" transform="translate(-251.77 -93.905)"/></g><g transform="translate(3366.717 224.837)"><path class="c" d="M279.931,658.931a1.15,1.15,0,0,1-.632-.19,1.132,1.132,0,0,1-.434-1.3L433.657,204.95l.009-.054a1.136,1.136,0,0,1,1.229-.877L598.2,59.152a1.114,1.114,0,0,1,.949.8,1.127,1.127,0,0,1-.344,1.184L280.664,658.659A1.115,1.115,0,0,1,279.931,658.931ZM435.555,206.369,282.336,654.275,593.086,67.288Z" transform="translate(-278.804 -59.152)"/></g><g transform="translate(3122.366 369.693)"><path class="c" d="M497.251,530.1a1.174,1.174,0,0,1-.859-.389L252.046,246.341a1.133,1.133,0,0,1,.416-1.781L651.645,75.269a1.054,1.054,0,0,1,.8-.027,1.118,1.118,0,0,1,.723,1.437L498.318,529.341a1.127,1.127,0,0,1-.85.741ZM254.767,246.043l242.059,280.7L650.217,78.334Z" transform="translate(-251.773 -75.177)"/></g><g transform="translate(2446.622 1319.981)"><path class="c" d="M178.147,516.688a1.169,1.169,0,0,1-.642-.2,1.152,1.152,0,0,1-.443-1.257L260.714,233.2a1.141,1.141,0,0,1,.759-.913,1.712,1.712,0,0,1,.208-.045l353.353-51.923a1.1,1.1,0,0,1,1.2.678,1.122,1.122,0,0,1-.353,1.329L178.834,516.453A1.147,1.147,0,0,1,178.147,516.688Zm84.573-282.312-82.5,278.172L611.039,183.185Z" transform="translate(-177.018 -180.303)"/></g><g transform="translate(2376.881 1371.916)"><path class="c" d="M240.173,470.5a1.089,1.089,0,0,1-.7-.244l-69.748-54.942a1.139,1.139,0,0,1-.235-1.519L322.921,186.542a1.131,1.131,0,0,1,.578-.443,1.178,1.178,0,0,1,1.148.262,1.119,1.119,0,0,1,.307,1.13l-83.7,282.195a1.153,1.153,0,0,1-.741.759A1.132,1.132,0,0,1,240.173,470.5Zm-68.212-56.316,67.606,53.261,81.138-273.589Z" transform="translate(-169.303 -186.048)"/></g><g transform="translate(2883.667 1077.719)"><path class="c" d="M226.5,398.023a1.173,1.173,0,0,1-.542-.135,1.131,1.131,0,0,1-.579-1.166l30.78-199.583a1.139,1.139,0,0,1,.5-.768l.009-.009a1.029,1.029,0,0,1,.425-.172l239.582-42.666a1.122,1.122,0,0,1,1.22.615,1.148,1.148,0,0,1-.262,1.338L227.251,397.743A1.107,1.107,0,0,1,226.5,398.023Zm31.774-199.745L228.1,393.947l265.065-237.5Z" transform="translate(-225.367 -153.503)"/></g><g transform="translate(2530.307 1120.389)"><path class="c" d="M187.408,412.006a1.129,1.129,0,0,1-.624-2.07l384.16-251.524a1.125,1.125,0,0,1,1.564.316,1.138,1.138,0,0,1,.136.958L541.883,359.116a1.122,1.122,0,0,1-.949.949L187.571,411.988ZM570.049,161.7,192.317,409.014,539.785,357.95ZM540.771,358.944h0Z" transform="translate(-186.276 -158.223)"/></g><g transform="translate(3154.042 805.979)"><path class="c" d="M491.461,551.7a1.124,1.124,0,0,1-.624-.19L255.792,397.254a1.119,1.119,0,0,1-.5-1.139l47.837-271.727a1.034,1.034,0,0,1,1.211-.931,1.119,1.119,0,0,1,.976.777L492.491,550.112a1.125,1.125,0,0,1-.3,1.32A1.114,1.114,0,0,1,491.461,551.7ZM257.654,395.772,488.893,547.536,304.714,128.456Z" transform="translate(-255.277 -123.441)"/></g><g transform="translate(2914.463 805.992)"><path class="c" d="M229.9,440.1a1.13,1.13,0,0,1-.832-1.889L516.4,123.915a1.1,1.1,0,0,1,1.021-.47,1.117,1.117,0,0,1,1.031,1.121v.018a1.369,1.369,0,0,1-.027.262L470.594,396.492a1.135,1.135,0,0,1-.913.922L230.1,440.08Zm285.63-311.889L232.982,437.278l235.524-41.952Z" transform="translate(-228.773 -123.443)"/></g><g transform="translate(3366.721 822.354)"><path class="c" d="M302.31,537.139a1.09,1.09,0,0,1-.407-.081,1.12,1.12,0,0,1-.723-.994L278.807,126.448a1.133,1.133,0,0,1,1.754-1l259,173.4a1.156,1.156,0,0,1,.5.832,1.18,1.18,0,0,1-.325.913L303.105,536.8A1.132,1.132,0,0,1,302.31,537.139ZM281.184,128.581,303.3,533.414,537.156,299.952Z" transform="translate(-278.805 -125.253)"/></g><g transform="translate(3201.882 805.997)"><path class="c" d="M448.913,551.686a1.146,1.146,0,0,1-1.04-.678L260.666,125.032a1.13,1.13,0,0,1,1.148-1.582l164.835,16.361a1.124,1.124,0,0,1,1.012,1.058l22.382,409.624a1.13,1.13,0,0,1-.868,1.157A1.4,1.4,0,0,1,448.913,551.686Zm-185.4-425.8L447.449,544.4,425.465,141.963Z" transform="translate(-260.569 -123.443)"/></g><g transform="translate(3625.716 224.828)"><path class="c" d="M308.584,832.334a1.081,1.081,0,0,1-.334-.054,1.128,1.128,0,0,1-.759-1.347l89.554-361.805a1.079,1.079,0,0,1,.135-.316L366.68,59.82a1.131,1.131,0,0,1,1.031-.669h.018a1.125,1.125,0,0,1,.985,1.672l-59.073,770.8A1.126,1.126,0,0,1,308.584,832.334ZM399.2,469.842,313.917,814.355,367.9,105.587Z" transform="translate(-307.456 -59.151)"/></g><g transform="translate(3366.713 224.828)"><path class="c" d="M538.935,832.334a1.122,1.122,0,0,1-.624-.19L279.3,658.749a1.157,1.157,0,0,1-.5-.877,1.125,1.125,0,0,1,.4-.922L597.239,59.5a1.112,1.112,0,0,1,.823-.353h.018a1.127,1.127,0,0,1,.985,1.672l-59.073,770.8a1.126,1.126,0,0,1-.714.66A1.093,1.093,0,0,1,538.935,832.334Zm-258-174L538.392,829.487,596.715,65.054Z" transform="translate(-278.804 -59.151)"/></g><g transform="translate(3715.273 388.601)"><path class="c" d="M318.489,324.874a1.125,1.125,0,0,1-.651-2.043L629.42,100.478a.787.787,0,0,1,.271-.145l41.1-22.924a1.13,1.13,0,0,1,1.193,1.916L319.139,324.675A1.147,1.147,0,0,1,318.489,324.874ZM630.595,102.412l-160.876,114.8L651.946,90.507l-21.288,11.869Z" transform="translate(-317.364 -77.268)"/></g><g transform="translate(3685.021 224.828)"><path class="c" d="M345.393,470.529a1.123,1.123,0,0,1-.958-1.717L314.017,59.684a1.352,1.352,0,0,1,.985-.533L657.038,245.916a1.135,1.135,0,0,1,1.1,1.148,1.122,1.122,0,0,1-.642,1L346.053,470.321A1.1,1.1,0,0,1,345.393,470.529ZM315.608,61.42,349.28,465.241,653.558,248.1Z" transform="translate(-314.017 -59.151)"/></g><g transform="translate(2864.461 1320.001)"><path class="c" d="M224.373,666.229a1.132,1.132,0,0,1-1.13-1.175L242.47,181.613l-.009-.054a1.1,1.1,0,0,1,.271-.886,1.177,1.177,0,0,1,1.672-.036,1.1,1.1,0,0,1,.325.823v.054l58.883,465.533a1.131,1.131,0,0,1-.877,1.238L224.617,666.2A1.132,1.132,0,0,1,224.373,666.229Zm19.815-471.011-18.63,468.444,75.679-17.347Z" transform="translate(-223.242 -180.305)"/></g><g transform="translate(2446.617 1319.992)"><path class="c" d="M595.993,666.236a1.134,1.134,0,0,1-.389-.073L177.772,516.606a1.119,1.119,0,0,1-.307-1.952l437.05-334.126a1.167,1.167,0,0,1,1.51.118,1.1,1.1,0,0,1,.325.823L597.122,665.152a1.158,1.158,0,0,1-1.13,1.085Zm-415.5-151.05L594.917,663.515,614,183.763Z" transform="translate(-177.018 -180.304)"/></g><g transform="translate(2942.576 1077.728)"><path class="c" d="M233.019,863.784a1.124,1.124,0,0,1-1.085-1.446L443.377,154.374a1.14,1.14,0,0,1,2.088-.326,1.129,1.129,0,0,1,.126.9l-.09.289L349.267,575.849,234.059,863.079A1.111,1.111,0,0,1,233.019,863.784ZM435.594,188.39,241.182,839.26,347.115,575.171Z" transform="translate(-231.883 -153.504)"/></g><g transform="translate(2883.672 1077.716)"><path class="c" d="M285.407,863.794h-.1a1.143,1.143,0,0,1-1.03-.985l-58.9-465.768a1.142,1.142,0,0,1,.362-.985l270.38-242.267a1.123,1.123,0,0,1,.976-.262,1.171,1.171,0,0,1,.76.533,1.129,1.129,0,0,1,.126.9L286.483,862.99A1.131,1.131,0,0,1,285.407,863.794ZM227.69,397.348l58.16,459.865,208.821-699.1Z" transform="translate(-225.367 -153.502)"/></g><g transform="translate(3057.724 1231.98)"><path class="c" d="M245.754,439.538a1.155,1.155,0,0,1-1.021-.633,1.128,1.128,0,0,1,.316-1.374l331.36-266.719a1.1,1.1,0,0,1,.705-.244h.009a1.135,1.135,0,0,1,1.022.633L661.19,342.553a1.11,1.11,0,0,1,0,.986,1.1,1.1,0,0,1-.759.606L246.007,439.511A1.2,1.2,0,0,1,245.754,439.538ZM576.726,173.461,250.292,436.2l408.25-93.938Z" transform="translate(-244.622 -170.568)"/></g><g transform="translate(3057.725 1077.712)"><path class="c" d="M245.753,576.74a1.172,1.172,0,0,1-.6-.172,1.133,1.133,0,0,1-.506-1.211l96.316-420.969a1.129,1.129,0,0,1,.687-.8,1.071,1.071,0,0,1,1.039.1L577.737,307.951a1.128,1.128,0,0,1,.47,1.266,1.1,1.1,0,0,1-.47.624L246.458,576.487A1.074,1.074,0,0,1,245.753,576.74ZM342.81,156.477,247.579,572.691,575.2,308.982Z" transform="translate(-244.622 -153.502)"/></g><g transform="translate(3472.145 995.751)"><path class="c" d="M291.594,554.277a1.152,1.152,0,0,1-.606-.181,1.135,1.135,0,0,1-.452-1.347L444.081,145.177a1.135,1.135,0,0,1,.886-.723h.027a.785.785,0,0,1,.289-.009l226.005,23.069a1.127,1.127,0,0,1,.687,1.916L292.4,553.933A1.109,1.109,0,0,1,291.594,554.277Zm154.3-407.5L294.532,548.564,668.712,169.52Z" transform="translate(-290.467 -144.435)"/></g><g transform="translate(3389.094 995.748)"><path class="c" d="M365.458,554.279a1.14,1.14,0,0,1-1.012-.642L281.39,382.284a1.132,1.132,0,0,1,.226-1.293L518.08,144.926a1.166,1.166,0,0,1,.75-.47h.027a1.092,1.092,0,0,1,1.184.606,1.129,1.129,0,0,1-.063,1.121L366.515,553.547a1.142,1.142,0,0,1-1,.732ZM283.777,382.022l81.554,168.261,150.76-400.178Z" transform="translate(-281.28 -144.435)"/></g><g transform="translate(3715.27 633.948)"><path class="c" d="M454.942,491.542l-.2-.018a1.126,1.126,0,0,1-.859-.732L317.515,106.1a1.026,1.026,0,0,1-.1-.226,1.118,1.118,0,0,1,.28-1.13,1.151,1.151,0,0,1,1.058-.307l.09.018,400.765,75.76a1.145,1.145,0,0,1,.651,1.853L455.8,491.154A1.128,1.128,0,0,1,454.942,491.542ZM320.236,107.021,455.358,488.2l261.91-306.122Z" transform="translate(-317.363 -104.41)"/></g><g transform="translate(3625.715 633.948)"><path class="c" d="M534.59,491.542h-.109L308.476,468.474a1.146,1.146,0,0,1-.814-.479,1.113,1.113,0,0,1-.172-.922l89.554-361.805a1.174,1.174,0,0,1,.3-.524,1.151,1.151,0,0,1,1.058-.307,1.135,1.135,0,0,1,.823.714L535.656,490.033a1.12,1.12,0,0,1-1.066,1.51ZM310,466.349l222.931,22.761L398.347,109.434Z" transform="translate(-307.456 -104.41)"/></g><g transform="translate(4068.109 388.597)"><path class="c" d="M405.595,400.674a1.134,1.134,0,0,1-.506-.126,1.1,1.1,0,0,1-.615-.841L356.411,78.57a1.123,1.123,0,0,1,.253-.9,1.136,1.136,0,0,1,.859-.4h.018a1.338,1.338,0,0,1,.379.063L740.245,216.449a1.124,1.124,0,0,1,.741.976,1.107,1.107,0,0,1-.587,1.076L406.128,400.529A1.031,1.031,0,0,1,405.595,400.674ZM358.924,80.106l47.548,317.665L737.118,217.714Z" transform="translate(-356.396 -77.268)"/></g><g transform="translate(3715.272 388.597)"><path class="c" d="M719.4,400.674l-.217-.018-400.9-75.8a1.127,1.127,0,0,1-.434-2.034L670.577,77.557a1.1,1.1,0,0,1,.75-.289h.018a1.134,1.134,0,0,1,1.076.8,1.091,1.091,0,0,1,.054.343l48.036,320.965a1.145,1.145,0,0,1-1.112,1.3ZM321.346,323.142l396.7,74.991L670.478,80.369Z" transform="translate(-317.363 -77.268)"/></g><g transform="translate(4290.131 350.96)"><path class="c" d="M542.4,252.11a1.117,1.117,0,0,1-.841-.371L381.249,75a1.137,1.137,0,0,1-.235-1.112,1.114,1.114,0,0,1,.832-.75l.018-.009a1.336,1.336,0,0,1,.379-.018l565.573,71.412a1.131,1.131,0,0,1,.145,2.215L542.685,252.083A1.466,1.466,0,0,1,542.4,252.11ZM384.973,75.731l157.8,173.983L941.706,146.022Z" transform="translate(-380.958 -73.104)"/></g><g transform="translate(4068.119 350.945)"><path class="c" d="M739.856,252.122a1.132,1.132,0,0,1-.389-.063L357.143,112.951a1.14,1.14,0,0,1-.742-1.166,1.124,1.124,0,0,1,.94-1.012L579.37,73.132a1.081,1.081,0,0,1,1.148.515l160.17,176.586a1.13,1.13,0,0,1-.832,1.889ZM361.934,112.291l374.017,136.08L579.117,75.464Z" transform="translate(-356.398 -73.103)"/></g><g transform="translate(4855.722 135.853)"><path class="c" d="M444.651,338.083a1.285,1.285,0,0,1-.407-.072,1.132,1.132,0,0,1-.714-1.139L463.6,50.366a1.129,1.129,0,0,1,1.13-1.058h.018a1.2,1.2,0,0,1,.624.19l135.863,89.717a1.093,1.093,0,0,1,.5.759,1.154,1.154,0,0,1-.226.886l-155.967,196.8A1.13,1.13,0,0,1,444.651,338.083ZM465.713,52.436,446.034,333.392l152.93-192.975Z" transform="translate(-443.527 -49.308)"/></g><g transform="translate(4290.152 135.853)"><path class="c" d="M947.654,338.083l-.136-.009L381.945,266.662a1.129,1.129,0,0,1-.244-2.178L967.224,49.426a1.128,1.128,0,0,1,.506-.117h.018a1.142,1.142,0,0,1,1.112.931,1.106,1.106,0,0,1-.028.488L948.783,337.035a1.142,1.142,0,0,1-.407.8A1.172,1.172,0,0,1,947.654,338.083ZM386.835,265.008l559.779,70.671L966.474,52.11Z" transform="translate(-380.96 -49.308)"/></g><g transform="translate(3057.728 1498.685)"><path class="c" d="M495.467,641.4a1.212,1.212,0,0,1-.253-.027,1.171,1.171,0,0,1-.732-.542L244.865,201.9a1.114,1.114,0,0,1-.208-.967,1.139,1.139,0,0,1,.94-.859,1.23,1.23,0,0,1,.678.118L848.052,399.968a1.127,1.127,0,0,1,.28,2.007L496.1,641.213A1.13,1.13,0,0,1,495.467,641.4ZM248.21,203.214,495.846,638.646,845.168,401.4Z" transform="translate(-244.622 -200.072)"/></g><g transform="translate(2942.579 1498.605)"><path class="c" d="M597.877,641.475a1.067,1.067,0,0,1-.434-.091l-364.87-152a1.127,1.127,0,0,1-.606-1.465L347.113,200.854a1.044,1.044,0,0,1,.922-.777,1.094,1.094,0,0,1,1.112.624L598.863,639.784a1.147,1.147,0,0,1-.135,1.311A1.127,1.127,0,0,1,597.877,641.475ZM234.472,487.722,595.265,638.031,348.342,203.846Z" transform="translate(-231.884 -200.064)"/></g><g transform="translate(3472.146 1394.339)"><path class="c" d="M479.126,494.976a1.138,1.138,0,0,1-.958-.524L290.761,199.413a1.135,1.135,0,0,1-.289-.859,1.118,1.118,0,0,1,1.094-1.03l352.44-8.994a1.221,1.221,0,0,1,.994.542,1.145,1.145,0,0,1,.027,1.13L480.12,494.38a1.152,1.152,0,0,1-.958.6ZM293.645,199.729l185.4,291.885,163.063-300.77Z" transform="translate(-290.468 -188.529)"/></g><g transform="translate(3057.725 1403.331)"><path class="c" d="M847.7,486.978a1.019,1.019,0,0,1-.362-.063L245.4,287.079a1.111,1.111,0,0,1-.777-1.121,1.135,1.135,0,0,1,.877-1.049l414.415-95.358a1.222,1.222,0,0,1,.479-.009,1.18,1.18,0,0,1,.75.506L848.651,485.243a1.129,1.129,0,0,1-.949,1.735ZM249.93,286.211,845.044,483.778,659.662,191.93Z" transform="translate(-244.622 -189.524)"/></g><g transform="translate(3824.58 1018.822)"><path class="c" d="M330.588,524.763a1.186,1.186,0,0,1-.551-.136,1.151,1.151,0,0,1-.578-1.067l27.137-375.392a1.152,1.152,0,0,1,.262-.768,1.129,1.129,0,0,1,1.365-.3L652.177,290.577a1.112,1.112,0,0,1,.633.913,1.125,1.125,0,0,1-.461,1.012l-321.1,232.052A1.081,1.081,0,0,1,330.588,524.763Zm28.158-374.894L331.89,521.3l317.6-229.521Z" transform="translate(-329.456 -146.987)"/></g><g transform="translate(3472.145 1018.821)"><path class="c" d="M291.594,533.759a1.133,1.133,0,0,1-1.031-.687,1.108,1.108,0,0,1,.235-1.238l379.568-384.5a1.072,1.072,0,0,1,.886-.334,1.128,1.128,0,0,1,.832.443,1.182,1.182,0,0,1,.226.768L645.164,523.716a1.129,1.129,0,0,1-1.1,1.049L291.63,533.759ZM669.833,151.09,294.369,531.426l348.617-8.895Z" transform="translate(-290.467 -146.987)"/></g><g transform="translate(4116.175 709.728)"><path class="c" d="M392.342,567.62a1.124,1.124,0,0,1-1.121-1.057L361.744,114.19a1.217,1.217,0,0,1-.019-.443,1.132,1.132,0,0,1,.561-.8,1.093,1.093,0,0,1,1.1-.018,1.15,1.15,0,0,1,.416.389l310.117,354.23a1.146,1.146,0,0,1-.479,1.817L392.722,567.557A1.125,1.125,0,0,1,392.342,567.62ZM364.2,117.2l29.17,447.734L671.12,467.788Z" transform="translate(-361.714 -112.793)"/></g><g transform="translate(3851.721 709.728)"><path class="c" d="M627.54,567.62a1.113,1.113,0,0,1-.5-.117L333.088,424.037a1.14,1.14,0,0,1-.362-1.754L597.186,113.2a.986.986,0,0,1,.3-.244,1.093,1.093,0,0,1,1.1-.018,1.139,1.139,0,0,1,.6.913L628.67,566.417a1.125,1.125,0,0,1-1.13,1.2ZM335.393,422.645l290.9,141.974L597.1,116.767Z" transform="translate(-332.458 -112.793)"/></g><g transform="translate(4426.402 527.705)"><path class="c" d="M397.164,631.32a1.137,1.137,0,0,1-1.13-1.184L420.043,93.742a1.134,1.134,0,0,1,1.13-1.085h.036a1.138,1.138,0,0,1,1.031.678L638.564,581.729a1.122,1.122,0,0,1-.036.976,1.1,1.1,0,0,1-.777.588l-240.369,48ZM422.086,98.578,398.358,628.8l237.567-47.439Z" transform="translate(-396.033 -92.657)"/></g><g transform="translate(4116.176 527.705)"><path class="c" d="M673.071,631.32a1.11,1.11,0,0,1-.85-.389L361.987,276.565a1.14,1.14,0,0,1,.316-1.736L696.393,92.9a1.081,1.081,0,0,1,.687-.244h.036a1.13,1.13,0,0,1,1.094.859,1.174,1.174,0,0,1-.01.588L674.193,630.235a1.133,1.133,0,0,1-.75,1.021A1.329,1.329,0,0,1,673.071,631.32ZM364.617,276.14,672.068,627.324,695.86,95.758Z" transform="translate(-361.714 -92.657)"/></g><g transform="translate(4655.987 422.368)"><path class="c" d="M433.337,677l-.154-.009a1.14,1.14,0,0,1-.976-1.085L421.432,363.172a1.1,1.1,0,0,1,.208-.687L621.268,81.619A1.137,1.137,0,0,1,622.28,81h.009a1.139,1.139,0,0,1,1.012,1.645L434.413,676.218A1.126,1.126,0,0,1,433.337,677ZM423.7,363.479,434.241,669.3,618.99,88.724Z" transform="translate(-421.431 -81.004)"/></g><g transform="translate(4450.443 422.368)"><path class="c" d="M616.143,677a1.125,1.125,0,0,1-1.031-.678L398.789,187.932a1.124,1.124,0,0,1,.018-.949,1.166,1.166,0,0,1,.732-.606L804.707,81.067a1.287,1.287,0,0,1,.38-.063h.009a1.131,1.131,0,0,1,1.121.985,1.164,1.164,0,0,1-.109.66L617.219,676.218a1.136,1.136,0,0,1-1.012.786ZM401.392,188.23l214.58,484.462L803.387,83.743Z" transform="translate(-398.692 -81.004)"/></g><g transform="translate(4655.987 225.564)"><path class="c" d="M422.562,539.3a1.106,1.106,0,0,1-.859-.4,1.141,1.141,0,0,1-.054-1.41l355.586-477.6a1.1,1.1,0,0,1,1.22-.633,1.131,1.131,0,0,1,.334.117L1061.427,196.52a1.116,1.116,0,0,1,.642.985,1.129,1.129,0,0,1-.606,1.021L423.095,539.162A1.14,1.14,0,0,1,422.562,539.3ZM778.627,61.8,426.476,534.8l631.968-337.218Z" transform="translate(-421.431 -59.232)"/></g><g transform="translate(4655.986 225.57)"><path class="c" d="M422.563,539.292a1.157,1.157,0,0,1-.669-.217,1.127,1.127,0,0,1-.253-1.564l199.736-281L777.372,59.657a1.142,1.142,0,0,1,1.817,1.383L423.467,538.84A1.139,1.139,0,0,1,422.563,539.292ZM733.087,119.173,623.176,257.866,482.865,455.27Z" transform="translate(-421.431 -59.233)"/></g><g transform="translate(3773.279 1394.341)"><path class="c" d="M324.906,541.256a1.144,1.144,0,0,1-.823-.352,1.121,1.121,0,0,1-.289-.94L375.075,189.5a1.146,1.146,0,0,1,.56-.814l.018-.009a1.112,1.112,0,0,1,1.012-.054,1.137,1.137,0,0,1,.651.769l81.934,340.219a1.142,1.142,0,0,1-.181.931,1.163,1.163,0,0,1-.832.461L325,541.256Zm51.57-345.679L326.235,538.9l130.512-10.043Z" transform="translate(-323.781 -188.529)"/></g><g transform="translate(3659.673 1394.345)"><path class="c" d="M425.944,541.252a1.18,1.18,0,0,1-.425-.081L311.92,494.88a1.1,1.1,0,0,1-.642-.66,1.134,1.134,0,0,1,.072-.922L476.186,189.255a1.112,1.112,0,0,1,.488-.569l.018-.009a1.133,1.133,0,0,1,1.347.172,1.1,1.1,0,0,1,.289,1.139L427.065,540.294a1.124,1.124,0,0,1-1.121.958ZM313.936,493.271l111.1,45.27,50.151-342.714Z" transform="translate(-311.213 -188.53)"/></g><g transform="translate(3906.521 1162.294)"><path class="c" d="M339.654,737.382a1.161,1.161,0,0,1-.6-.163,1.138,1.138,0,0,1-.452-1.4L577.737,163.556a1.131,1.131,0,0,1,.877-.678l.036-.009a1.133,1.133,0,0,1,.922.289,1.119,1.119,0,0,1,.361.9l-20.655,320.3a1.218,1.218,0,0,1-.271.678L340.5,736.994A1.122,1.122,0,0,1,339.654,737.382Zm237.594-566.8L343.406,730.2,557.045,483.843Z" transform="translate(-338.521 -162.859)"/></g><g transform="translate(3824.582 1162.293)"><path class="c" d="M412.529,737.383h-.091a1.146,1.146,0,0,1-1.012-.868l-81.943-340.21a1.153,1.153,0,0,1,.443-1.184L650.855,163.2a1.143,1.143,0,0,1,.633-.316l.036-.009a1.136,1.136,0,0,1,1.085,1.772L413.569,736.7A1.135,1.135,0,0,1,412.529,737.383Zm-80.668-340.87,80.958,336.115L649.048,167.29Z" transform="translate(-329.456 -162.859)"/></g><g transform="translate(4125.019 1064.116)"><path class="c" d="M363.821,572.751a1.181,1.181,0,0,1-.841-.371,1.144,1.144,0,0,1-.072-1.428L664.185,152.623a1.167,1.167,0,0,1,1.591-.479L891.528,265.562a1.127,1.127,0,0,1,.054,1.989L364.391,572.6A1.17,1.17,0,0,1,363.821,572.751ZM665.568,154.566,367.817,568,888.645,266.638Z" transform="translate(-362.692 -151.998)"/></g><g transform="translate(4125.017 1064.114)"><path class="c" d="M363.823,572.752a1.154,1.154,0,0,1-1.13-1.2l20.664-320.314a1.133,1.133,0,0,1,.75-.994l280.721-98.187a1.175,1.175,0,0,1,1.392.551,1.124,1.124,0,0,1-.081,1.175l-301.4,418.5A1.135,1.135,0,0,1,363.823,572.752Zm21.74-320.621L365.206,567.771l297.01-412.408Z" transform="translate(-362.692 -151.998)"/></g><g transform="translate(4652.214 1008.75)"><path class="c" d="M422.148,316.936a1.192,1.192,0,0,1-.669-.208,1.129,1.129,0,0,1-.461-1.021l14.544-161.3a1.139,1.139,0,0,1,.425-.931.817.817,0,0,1,.768-.244L824.9,145.873h.018a1.128,1.128,0,0,1,.443,2.169L422.582,316.855A1.227,1.227,0,0,1,422.148,316.936Zm15.593-161.463-14.3,158.571,395.6-165.8Z" transform="translate(-421.013 -145.873)"/></g><g transform="translate(4426.402 1016.107)"><path class="c" d="M622.979,310.393a1.132,1.132,0,0,1-.515-.118L396.649,196.821a1.131,1.131,0,0,1,.289-2.115l240.323-47.991a1.186,1.186,0,0,1,.8.1,1.141,1.141,0,0,1,.6,1.094L624.1,309.372a1.143,1.143,0,0,1-.578.886A1.123,1.123,0,0,1,622.979,310.393ZM400.6,196.279,622,307.51l14.273-158.29Z" transform="translate(-396.033 -146.687)"/></g><g transform="translate(4655.985 683.709)"><path class="c" d="M821.567,437.217a1.1,1.1,0,0,1-.678-.235L422.031,131.7a1.122,1.122,0,0,1-.578-.777,1.14,1.14,0,0,1,.506-1.184,1.26,1.26,0,0,1,.75-.172l453.963-19.652a1.208,1.208,0,0,1,.895.389,1.13,1.13,0,0,1,.271.931l-55.15,325.042a1.14,1.14,0,0,1-.705.859A1.1,1.1,0,0,1,821.567,437.217ZM425.746,131.7,820.771,434.053l54.6-321.824Z" transform="translate(-421.431 -109.915)"/></g><g transform="translate(4655.968 703.299)"><path class="c" d="M433.355,427.151a1.142,1.142,0,0,1-1.13-1.094L421.45,113.318a1.013,1.013,0,0,1,.516-1.094,1.155,1.155,0,0,1,1.293.136L822.269,417.768a1.128,1.128,0,0,1-.66,2.025l-388.228,7.358ZM423.773,115.6l10.676,309.268,383.88-7.268Z" transform="translate(-421.429 -112.082)"/></g><g transform="translate(5110.146 362.733)"><path class="c" d="M472.8,397.642a1.113,1.113,0,0,1-.895-.443,1.139,1.139,0,0,1-.081-1.247L656.027,74.969a1.129,1.129,0,0,1,1.338-.506h.009a1.49,1.49,0,0,1,.334.181L923.94,279.469a1.115,1.115,0,0,1,.415,1.121,1.134,1.134,0,0,1-.823.868L473.087,397.606A1.062,1.062,0,0,1,472.8,397.642ZM657.348,77.211,475.12,394.75l445.6-114.9Z" transform="translate(-471.673 -74.407)"/></g><g transform="translate(4655.986 362.726)"><path class="c" d="M422.563,417.309a1.128,1.128,0,0,1-.533-2.124L1060.262,74.622a1.11,1.11,0,0,1,1.022-.154h.009a1.127,1.127,0,0,1,.768.976,1.1,1.1,0,0,1-.244.8L877.7,397.079a1.112,1.112,0,0,1-.931.57L422.608,417.309ZM1057.975,78.4,427.48,414.832l448.566-19.417ZM876.715,396.518h0Z" transform="translate(-421.431 -74.406)"/></g><g transform="translate(5560.594 220.292)"><path class="c" d="M522.637,408.177a1.133,1.133,0,0,1-1.04-1.573L670.333,59.533a1.154,1.154,0,0,1,1.328-.868,1.116,1.116,0,0,1,.787.588,1.139,1.139,0,0,1,.054.967l-19.743,90.937a.87.87,0,0,1-.09.271L523.64,407.553A1.122,1.122,0,0,1,522.637,408.177ZM667.811,71.158,538.075,373.872,650.581,150.543Z" transform="translate(-521.504 -58.649)"/></g><g transform="translate(5294.361 220.294)"><path class="c" d="M759.417,408.176a1.134,1.134,0,0,1-.7-.235L492.49,203.115a1.145,1.145,0,0,1-.425-1.076,1.129,1.129,0,0,1,.75-.886L907.854,58.7a1.427,1.427,0,0,1,.587-.036,1.116,1.116,0,0,1,.787.588,1.138,1.138,0,0,1,.054.967L760.456,407.489a1.159,1.159,0,0,1-.76.651A.988.988,0,0,1,759.417,408.176ZM495.536,202.609,758.947,405.265,906.208,61.656Z" transform="translate(-492.051 -58.649)"/></g><g transform="translate(4045.787 1482.601)"><path class="c" d="M355.057,649.064a1.115,1.115,0,0,1-.714-.253,1.128,1.128,0,0,1-.4-1.076l79.222-448.5a1.128,1.128,0,0,1,.75-.877h.009a1.068,1.068,0,0,1,.9.081L874.212,435.976a1.113,1.113,0,0,1,.588,1.049,1.126,1.126,0,0,1-.705.985L355.481,648.983A1.144,1.144,0,0,1,355.057,649.064Zm80.063-447.906L356.53,646.117l514.5-209.3Z" transform="translate(-353.927 -198.293)"/></g><g transform="translate(3906.522 1482.604)"><path class="c" d="M478.915,649.061a1.123,1.123,0,0,1-.922-.479L338.731,452.028a1.128,1.128,0,0,1,.063-1.392L557.207,198.787a1.138,1.138,0,0,1,.569-.434h.009a1.133,1.133,0,0,1,1.437,1.428L480.027,648.13a1.133,1.133,0,0,1-.859.9A1.2,1.2,0,0,1,478.915,649.061ZM341.081,451.449,478.274,645.066l78.038-441.8Z" transform="translate(-338.521 -198.293)"/></g><g transform="translate(4564.403 1177.553)"><path class="c" d="M412.426,709.393a.954.954,0,0,1-.352-.054,1.136,1.136,0,0,1-.76-1.257l87.81-542.568a1.1,1.1,0,0,1,.1-.326l.009-.009a1.117,1.117,0,0,1,.705-.588,1.1,1.1,0,0,1,.9.127l149.151,92.709a1.123,1.123,0,0,1,.4,1.482L413.43,708.8A1.138,1.138,0,0,1,412.426,709.393Zm88.659-541.854L414.65,701.628,647.9,258.793Z" transform="translate(-411.299 -164.547)"/></g><g transform="translate(4125.018 1177.556)"><path class="c" d="M803.2,709.39a1.114,1.114,0,0,1-.533-.135L363.289,471.715a1.132,1.132,0,0,1-.6-.976,1.12,1.12,0,0,1,.57-.994L890.453,164.7a1.122,1.122,0,0,1,1.338.163,1.11,1.11,0,0,1,.326,1.094l-87.8,542.486a1.1,1.1,0,0,1-.615.841A1.176,1.176,0,0,1,803.2,709.39Zm-437.068-238.7L802.346,706.516l87.177-538.663Z" transform="translate(-362.692 -164.547)"/></g><g transform="translate(4801.368 1008.75)"><path class="c" d="M438.647,409.645a1.131,1.131,0,0,1-.814-1.916L691.445,146.216a1.149,1.149,0,0,1,.813-.343h.009a1.139,1.139,0,0,1,.976.56,1.111,1.111,0,0,1,.018,1.112L613.434,292.972a1.162,1.162,0,0,1-.362.4l-173.8,116.085A1.123,1.123,0,0,1,438.647,409.645ZM687.269,153.773l-240.414,247.9L611.59,291.644Z" transform="translate(-437.514 -145.873)"/></g><g transform="translate(4652.215 1008.75)"><path class="c" d="M571.3,409.645a1.169,1.169,0,0,1-.6-.172L421.551,316.764a1.107,1.107,0,0,1-.533-1.04,1.137,1.137,0,0,1,.687-.958L824.368,146.009a1.2,1.2,0,0,1,.542-.136h.009a1.132,1.132,0,0,1,1.112.913,1.112,1.112,0,0,1-.416,1.112L572.1,409.3A1.123,1.123,0,0,1,571.3,409.645Zm-146.7-93.64,146.521,91.073L820.246,150.194Z" transform="translate(-421.014 -145.873)"/></g><g transform="translate(4975.173 683.705)"><path class="c" d="M457.87,582.647a1.175,1.175,0,0,1-.633-.19,1.137,1.137,0,0,1-.452-1.256l134.95-470.469a1.143,1.143,0,0,1,1.266-.8l.027.009a1.121,1.121,0,0,1,.705.416L769.2,332.678a1.131,1.131,0,0,1-.181,1.582L458.575,582.393A1.14,1.14,0,0,1,457.87,582.647ZM593.3,113.452,459.931,578.416l306.8-245.223Z" transform="translate(-456.741 -109.915)"/></g><g transform="translate(4975.172 683.705)"><path class="c" d="M457.872,582.647a1.07,1.07,0,0,1-.434-.09,1.121,1.121,0,0,1-.651-1.356l134.95-470.469a1.143,1.143,0,0,1,1.266-.8l.027.009a1.1,1.1,0,0,1,.732.461,1.123,1.123,0,0,1,.2.841l-55.15,325.042a1.177,1.177,0,0,1-.127.353L458.857,582.059A1.123,1.123,0,0,1,457.872,582.647Zm130.5-452.019L461.741,572.107l74.874-136.388Z" transform="translate(-456.741 -109.915)"/></g><g transform="translate(5285.611 567.56)"><path class="c" d="M492.219,437.8a1.129,1.129,0,0,1-.967-.542,1.1,1.1,0,0,1,.09-1.293L766.232,97.6a1.158,1.158,0,0,1,.913-.533,1.326,1.326,0,0,1,1.058.624,1.132,1.132,0,0,1-.009,1.048L647.237,404.508a1.163,1.163,0,0,1-.823.7l-153.97,32.569A.967.967,0,0,1,492.219,437.8ZM763.439,104.632,495.1,434.908l150.254-31.792Z" transform="translate(-491.083 -97.066)"/></g><g transform="translate(5110.146 567.572)"><path class="c" d="M648.272,437.79h-.009a1.132,1.132,0,0,1-.886-.425L471.911,215.039a1.156,1.156,0,0,1-.181-1.067,1.143,1.143,0,0,1,.787-.732L922.963,97.092a1.139,1.139,0,0,1,1.166,1.817L649.148,437.374A1.146,1.146,0,0,1,648.272,437.79Zm-173.5-222.8L648.281,434.852,920.224,100.129Z" transform="translate(-471.673 -97.067)"/></g><g transform="translate(5439.581 311.435)"><path class="c" d="M509.242,633.013a1.128,1.128,0,0,1-.813-.344,1.14,1.14,0,0,1-.217-1.238l250-561.9a1.26,1.26,0,0,1,.163-.334,1.129,1.129,0,0,1,1.536-.271l.091.063,390.912,313.48a1.14,1.14,0,0,1-.3,1.943L509.657,632.94A1.085,1.085,0,0,1,509.242,633.013ZM759.725,71.67,511.393,629.84l636.578-246.832Z" transform="translate(-508.117 -68.732)"/></g><g transform="translate(5439.578 311.435)"><path class="c" d="M509.244,633.013a1.056,1.056,0,0,1-.434-.081,1.14,1.14,0,0,1-.615-1.464l121.012-305.9L758.273,69.356a1.171,1.171,0,0,1,.723-.588,1.139,1.139,0,0,1,1.329,1.555L510.284,632.344A1.133,1.133,0,0,1,509.244,633.013ZM739.209,112.231,631.268,326.493,530.125,582.175Z" transform="translate(-508.116 -68.732)"/></g><g transform="translate(5848.341 304.478)"><path class="c" d="M786.663,390.669a1.139,1.139,0,0,1-.922-.47L553.643,69.858a1.121,1.121,0,0,1,.606-1.871,1.143,1.143,0,0,1,1.157.434l.045.063L702.587,225.229a1.243,1.243,0,0,1,.172.253l84.907,163.533a1.133,1.133,0,0,1-1,1.654ZM565.937,82.956,778.645,376.54,700.824,226.657Z" transform="translate(-553.336 -67.962)"/></g><g transform="translate(5689.616 304.459)"><path class="c" d="M927.829,390.686a1.09,1.09,0,0,1-.705-.253L536.2,76.952a1.131,1.131,0,0,1,.66-2.016l158.725-6.96a.954.954,0,0,1,.985.461l232.17,320.45a1.136,1.136,0,0,1-.913,1.8ZM539.954,77.061,921.99,383.427,695.089,70.245Z" transform="translate(-535.777 -67.96)"/></g><g transform="translate(4801.366 1270.256)"><path class="c" d="M490.426,637.992a1.178,1.178,0,0,1-.579-.154,1.115,1.115,0,0,1-.542-.85L437.554,176.237a1.1,1.1,0,0,1,.063-.759,1.131,1.131,0,0,1,1.645-.5,1.2,1.2,0,0,1,.488.669L616.907,585.5a1.134,1.134,0,0,1-.606,1.5l-125.45,50.91A1.148,1.148,0,0,1,490.426,637.992Zm-49.8-454.6,50.757,451.866,122.992-49.916Z" transform="translate(-437.514 -174.802)"/></g><g transform="translate(4564.406 1270.256)"><path class="c" d="M701.172,637.992h-.045L412.379,626.945a1.127,1.127,0,0,1-.931-.56,1.146,1.146,0,0,1-.018-1.094L648.391,175.414a1.165,1.165,0,0,1,.642-.551,1.128,1.128,0,0,1,.976.118,1.142,1.142,0,0,1,.515.822l51.769,460.932a1.136,1.136,0,0,1-1.121,1.256ZM414.259,624.758,699.9,635.687l-51.209-456Z" transform="translate(-411.3 -174.802)"/></g><g transform="translate(4975.171 1154.172)"><path class="c" d="M461.3,690.324a1.145,1.145,0,0,1-.542-.135,1.12,1.12,0,0,1-.588-.985l-3.417-525.98a1.073,1.073,0,0,1,.163-.732,1.121,1.121,0,0,1,1.527-.371L891.234,415.433a1.119,1.119,0,0,1,.551.958,1.14,1.14,0,0,1-.515.976L461.9,690.152A1.141,1.141,0,0,1,461.3,690.324Zm-2.278-525.248,3.39,522.075L888.486,416.445Z" transform="translate(-456.741 -161.96)"/></g><g transform="translate(4801.368 1154.171)"><path class="c" d="M615.875,690.325a1.123,1.123,0,0,1-1.04-.678L437.607,279.634a1.136,1.136,0,0,1,.407-1.392l173.8-116.085a1.1,1.1,0,0,1,1.257,0,1.152,1.152,0,0,1,.516.931L617,689.186a1.141,1.141,0,0,1-.9,1.121A1.886,1.886,0,0,1,615.875,690.325ZM440.057,279.6,614.708,683.654l-3.372-518.46Z" transform="translate(-437.514 -161.96)"/></g><g transform="translate(5285.616 906.042)"><path class="c" d="M614.554,638.22a1.1,1.1,0,0,1-.416-.081,1.127,1.127,0,0,1-.678-.777L491.111,135.932a1.372,1.372,0,0,1-.027-.271v-.027a1.126,1.126,0,0,1,.714-1.048,1.146,1.146,0,0,1,1.247.289L827.66,501.127a1.124,1.124,0,0,1,.289.913,1.174,1.174,0,0,1-.515.8l-212.265,135.2A1.236,1.236,0,0,1,614.554,638.22ZM494.347,139.656l120.93,495.635L825.084,501.66Z" transform="translate(-491.084 -134.511)"/></g><g transform="translate(4975.169 906.04)"><path class="c" d="M890.657,638.222a1.2,1.2,0,0,1-.57-.154L457.3,384.754a1.129,1.129,0,0,1-.136-1.862L767.612,134.759a1.123,1.123,0,0,1,1.193-.136,1.1,1.1,0,0,1,.624.859L891.76,636.82a1.133,1.133,0,0,1-.425,1.175A1.093,1.093,0,0,1,890.657,638.222ZM459.862,383.634,888.93,634.769l-121.3-497.135Z" transform="translate(-456.741 -134.511)"/></g><g transform="translate(5439.583 873.456)"><path class="c" d="M689.893,532a1.348,1.348,0,0,1-.325-.045,1.163,1.163,0,0,1-.705-.615L508.3,132.66a1.087,1.087,0,0,1-.181-.561,1.132,1.132,0,0,1,.768-1.13,1.091,1.091,0,0,1,.678-.018L1110.8,263.56a1.126,1.126,0,0,1,.361,2.052L690.5,531.825A1.12,1.12,0,0,1,689.893,532ZM511.219,133.636,690.391,529.213,1107.635,265.17Z" transform="translate(-508.117 -130.906)"/></g><g transform="translate(5285.613 873.422)"><path class="c" d="M826.831,532.027a1.115,1.115,0,0,1-.832-.371L491.375,165.413a1.137,1.137,0,0,1,.606-1.871l153.969-32.578a1.011,1.011,0,0,1,1.274.633L827.861,530.427a1.153,1.153,0,0,1-.407,1.419A1.188,1.188,0,0,1,826.831,532.027ZM494.376,165.349,822.871,524.877,645.535,133.35Z" transform="translate(-491.084 -130.902)"/></g><g transform="translate(6040.895 624.969)"><path class="c" d="M575.765,486.791a1.139,1.139,0,0,1-1.121-1.248l39.639-381.05a1.171,1.171,0,0,1,1.971-.75,1.109,1.109,0,0,1,.289.877l-.822,309.638a1.088,1.088,0,0,1-.136.533l-38.825,71.4A1.135,1.135,0,0,1,575.765,486.791ZM614.218,126.92,577.473,480.147l35.986-66.178Z" transform="translate(-574.637 -103.417)"/></g><g transform="translate(5439.582 624.93)"><path class="c" d="M1110.556,486.826a1.125,1.125,0,0,1-.245-.027L509.005,354.18a1.133,1.133,0,0,1-.172-2.161L1149.8,103.479a1.182,1.182,0,0,1,1.247.3,1.11,1.11,0,0,1,.289.877L1111.686,485.8a1.171,1.171,0,0,1-.462.8A1.133,1.133,0,0,1,1110.556,486.826ZM513.137,352.77l596.425,131.542,39.331-378.058Z" transform="translate(-508.117 -103.413)"/></g><g transform="translate(5995.64 461.387)"><path class="c" d="M654.838,560.874a.936.936,0,0,1-.353-.063,1.113,1.113,0,0,1-.759-.868L569.649,86.654l-.018-.2v-.009a1.123,1.123,0,0,1,.48-.922,1.136,1.136,0,0,1,1.03-.136L996.222,241.175a1.111,1.111,0,0,1,.723.832,1.132,1.132,0,0,1-.344,1.048l-341,317.512A1.118,1.118,0,0,1,654.838,560.874ZM572.208,88.181,655.588,557.5,993.719,242.657Z" transform="translate(-569.631 -85.321)"/></g><g transform="translate(5995.64 461.385)"><path class="c" d="M654.838,560.875a1.132,1.132,0,0,1-1.112-.931L569.649,86.655l-.018-.2v-.009a1.125,1.125,0,0,1,2.125-.515l84.907,163.533a1.171,1.171,0,0,1,.127.524l-.822,309.756a1.123,1.123,0,0,1-1.031,1.121ZM573.166,93.534l80.578,453.574.787-296.848Z" transform="translate(-569.631 -85.32)"/></g><g transform="translate(5353.589 1407.482)"><path class="c" d="M499.737,561.234a1.114,1.114,0,0,1-.38-.063,1.131,1.131,0,0,1-.741-1.229l54.354-368.865a1.168,1.168,0,0,1,.126-.461,1.12,1.12,0,0,1,1.347-.578,1.138,1.138,0,0,1,.8,1.157L568.157,446.55a1.225,1.225,0,0,1-.154.642L500.7,560.683A1.117,1.117,0,0,1,499.737,561.234Zm53.812-358.6L501.69,554.6l64.189-108.275Z" transform="translate(-498.604 -189.983)"/></g><g transform="translate(4978.593 1407.478)"><path class="c" d="M833.248,561.238a1.4,1.4,0,0,1-.28-.027L457.974,465a1.122,1.122,0,0,1-.841-.913,1.133,1.133,0,0,1,.515-1.13L886.961,190.2a1.079,1.079,0,0,1,.994-.163,1.124,1.124,0,0,1,.786,1.229l-54.382,369a1.109,1.109,0,0,1-.488.777A1.122,1.122,0,0,1,833.248,561.238ZM461.066,463.467l371.243,95.24,53.83-365.312Z" transform="translate(-457.12 -189.983)"/></g><g transform="translate(5420.887 1272.289)"><path class="c" d="M507.174,567.981a1.156,1.156,0,0,1-.651-.208,1.142,1.142,0,0,1-.353-1.437l199.3-390.605a1.161,1.161,0,0,1,1.554-.6L831.4,221.561a1.148,1.148,0,0,1,.7.8,1.131,1.131,0,0,1-.28,1.03L508,567.619A1.117,1.117,0,0,1,507.174,567.981Zm199.9-390.415L511.784,560.3,829.015,223.088Z" transform="translate(-506.049 -175.027)"/></g><g transform="translate(5407.962 1272.177)"><path class="c" d="M518.669,568.081a1.11,1.11,0,0,1-.235-.027,1.136,1.136,0,0,1-.9-1.049L504.621,311.513a1.1,1.1,0,0,1,.516-1L717.411,175.3a1.023,1.023,0,0,1,1.374-.036,1.211,1.211,0,0,1,.245,1.5l-199.348,390.7A1.143,1.143,0,0,1,518.669,568.081Zm-11.76-256.025,12.682,250.619,195.56-383.292Z" transform="translate(-504.619 -175.015)"/></g><g transform="translate(5744.713 1006.075)"><path class="c" d="M821.924,596.2a1.185,1.185,0,0,1-.5-.117L542.5,460.4a1.113,1.113,0,0,1-.615-.813,1.129,1.129,0,0,1,.289-.976L838.348,145.948a.989.989,0,0,1,.262-.208l.009-.009a1.094,1.094,0,0,1,1.148.018,1.117,1.117,0,0,1,.542,1.012L823.054,595.12a1.146,1.146,0,0,1-.552.922A1.121,1.121,0,0,1,821.924,596.2ZM544.882,459.048,820.857,593.3l17.085-443.64Z" transform="translate(-541.872 -145.577)"/></g><g transform="translate(5620.232 1006.082)"><path class="c" d="M653.712,460.515a1.187,1.187,0,0,1-.4-.072L528.831,413.971a1.127,1.127,0,0,1-.723-.94,1.141,1.141,0,0,1,.516-1.075L949.239,145.787l.081-.054.01-.009a1.134,1.134,0,0,1,1.528.4,1.119,1.119,0,0,1-.227,1.437l-296.1,312.6A1.143,1.143,0,0,1,653.712,460.515ZM531.76,412.651,653.4,458.065,942.83,152.512Z" transform="translate(-528.101 -145.578)"/></g><g transform="translate(6023.628 934.676)"><path class="c" d="M573.864,659.7l-.2-.018a1.126,1.126,0,0,1-.931-1.229L628.8,138.705a1.143,1.143,0,0,1,.742-.949l.018-.009a1.12,1.12,0,0,1,.931.072,1.143,1.143,0,0,1,.56.732L664.4,282.65a1.29,1.29,0,0,1,0,.524L574.957,658.837A1.135,1.135,0,0,1,573.864,659.7Zm56.469-514.193L576.9,640.93,662.143,282.9Z" transform="translate(-572.727 -137.678)"/></g><g transform="translate(6023.634 934.688)"><path class="c" d="M573.859,659.694l-.09-.009a1.12,1.12,0,0,1-1.04-1.166l17.256-448.358a1.353,1.353,0,0,1,.135-.5l38.725-71.213a1.131,1.131,0,0,1,.688-.705l.018-.009a1.188,1.188,0,0,1,1.247.325,1.131,1.131,0,0,1,.218,1.085L574.98,658.681A1.133,1.133,0,0,1,573.859,659.694Zm18.377-449.181L576.245,625.877l51.932-481.461Z" transform="translate(-572.728 -137.68)"/></g><g transform="translate(6113.073 617.169)"><path class="c" d="M583.751,566.424a1.134,1.134,0,0,1-.94-1.763l307.631-461.61a1.15,1.15,0,0,1,.94-.5h.01a1.139,1.139,0,0,1,1.13,1.03l26.6,309.982a1.121,1.121,0,0,1-.651,1.121L584.221,566.316A1.084,1.084,0,0,1,583.751,566.424ZM890.542,106.983,586.887,562.627,916.81,412.961Z" transform="translate(-582.622 -102.554)"/></g><g transform="translate(6079.714 617.169)"><path class="c" d="M613.419,566.424l-.2-.018a1.159,1.159,0,0,1-.9-.859l-33.356-144.1a1.118,1.118,0,0,1,.334-1.076L920.2,102.943a1.139,1.139,0,0,1,.849-.389h.01a1.131,1.131,0,0,1,.867,1.853L614.359,565.918A1.136,1.136,0,0,1,613.419,566.424ZM581.311,421.575l32.624,140.917L914.75,111.105Z" transform="translate(-578.932 -102.554)"/></g><g transform="translate(5669.411 1318.76)"><path class="c" d="M534.674,793.1a1.1,1.1,0,0,1-.416-.081,1.129,1.129,0,0,1-.714-1.13l75.3-610.626a1.139,1.139,0,0,1,.949-1.085,1.156,1.156,0,0,1,1.257.768L771.717,669.131a1.154,1.154,0,0,1-.19,1.076L535.551,792.683A1.118,1.118,0,0,1,534.674,793.1Zm76.013-606.025-74.63,601.406L769.385,669.258Z" transform="translate(-533.542 -180.168)"/></g><g transform="translate(5420.886 1318.759)"><path class="c" d="M755.706,793.1a1.113,1.113,0,0,1-.94-.506L506.235,526.136a1.13,1.13,0,0,1,.118-1.392L830.183,180.521a1.155,1.155,0,0,1,1.238-.28,1.131,1.131,0,0,1,.714,1.058v.09l-75.3,610.662a1.146,1.146,0,0,1-.85,1.013A.991.991,0,0,1,755.706,793.1ZM508.612,525.639,754.82,788.57l74.829-604.19Z" transform="translate(-506.048 -180.168)"/></g><g transform="translate(5744.713 1318.748)"><path class="c" d="M703.678,670.634h-.009a1.126,1.126,0,0,1-1.066-.777l-160.677-488.2a1.156,1.156,0,0,1,.334-1.211,1.114,1.114,0,0,1,1.239-.163L822.412,315.978a1.13,1.13,0,0,1,.633.9,1.223,1.223,0,0,1-.117.624L704.745,669.856A1.136,1.136,0,0,1,703.678,670.634ZM544.909,183.487,703.687,665.915,820.522,317.569Z" transform="translate(-541.872 -180.167)"/></g><g transform="translate(6054.617 1078.776)"><path class="c" d="M577.282,524.242a1.189,1.189,0,0,1-.742-.271,1.139,1.139,0,0,1-.371-1.031l58.441-368.232a1.134,1.134,0,0,1,1.564-1l548.724,180.3a1.135,1.135,0,0,1-.019,2.16L577.617,524.2A1.363,1.363,0,0,1,577.282,524.242Zm59.371-368-57.97,365.249L1180.83,335.054Z" transform="translate(-576.155 -153.62)"/></g><g transform="translate(6023.63 1078.78)"><path class="c" d="M573.862,531.542a1.137,1.137,0,0,1-.805-.335,1.121,1.121,0,0,1-.3-1.058L662.2,154.487a1.121,1.121,0,0,1,.588-.75,1.162,1.162,0,0,1,1.185.1,1.136,1.136,0,0,1,.452,1.085L605.961,523.289a1.143,1.143,0,0,1-.859.922l-30.987,7.3A1.21,1.21,0,0,1,573.862,531.542Zm83.705-347.848-82.187,345.2,28.465-6.707Z" transform="translate(-572.728 -153.62)"/></g><g transform="translate(6447.324 927.14)"><path class="c" d="M835.282,471.073a1.147,1.147,0,0,1-.949-.515l-214.5-331.884a1.13,1.13,0,0,1,.036-1.428,1.114,1.114,0,0,1,1.564-.145l.063.054L886.012,376.538a1.144,1.144,0,0,1,.244,1.383l-49.98,92.564a1.147,1.147,0,0,1-.949.588ZM626.353,144.594,835.192,467.728l48.651-90.106Z" transform="translate(-619.599 -136.845)"/></g><g transform="translate(6113.077 927.149)"><path class="c" d="M1132.552,471.064a1.193,1.193,0,0,1-.353-.054l-548.8-180.338a1.128,1.128,0,0,1-.109-2.1L917.53,136.947a1.131,1.131,0,0,1,1.175.145,1.076,1.076,0,0,1,.253.28L1133.5,469.32a1.133,1.133,0,0,1-.949,1.745Zm-545.7-181.63,543.01,178.43L917.584,139.406Z" transform="translate(-582.623 -136.846)"/></g></g></g></svg>