<svg xmlns="http://www.w3.org/2000/svg" width="207.664" height="66.776" viewBox="0 0 207.664 66.776"><defs><style>.a{fill:#ab1d37;stroke:#fff;stroke-linecap:round;stroke-linejoin:round;stroke-width:0.569px;}</style></defs><g transform="translate(-1088.271 -529.4)"><g transform="translate(1143.86 539.846)"><path d="M1298.248,574.169h-9.909a2.5,2.5,0,0,1-1.8-.612,2.252,2.252,0,0,1-.645-1.741,2.33,2.33,0,0,1,.634-1.76,2.534,2.534,0,0,1,1.839-.624h15.8v-4.309h-15.8a8.526,8.526,0,0,0-2.949.478,6.331,6.331,0,0,0-2.187,1.321,5.459,5.459,0,0,0-1.345,2.016,6.96,6.96,0,0,0-.45,2.521,6.767,6.767,0,0,0,.481,2.57,5.912,5.912,0,0,0,1.371,2.04,6.237,6.237,0,0,0,2.174,1.337,8.113,8.113,0,0,0,2.845.478h9.939a3.262,3.262,0,0,1,2.164.636,2.341,2.341,0,0,1,.725,1.9,2.423,2.423,0,0,1-.735,1.861,3.037,3.037,0,0,1-2.154.7h-16.483v4.308h16.483a8.7,8.7,0,0,0,3.054-.493,5.983,5.983,0,0,0,2.193-1.387,5.763,5.763,0,0,0,1.311-2.1,7.746,7.746,0,0,0,.432-2.619,6.3,6.3,0,0,0-1.8-4.9A7.53,7.53,0,0,0,1298.248,574.169Z" transform="translate(-1281.439 -565.123)"/><path d="M1380.778,577.882h11.51v-3.713h-11.51v-4.737h15.563v-4.309H1376.5v22.162h19.872v-4.308h-15.593Z" transform="translate(-1349.244 -565.123)"/><path d="M1465.681,577.882h9.76v5.094h-8.989a6.459,6.459,0,0,1-2.588-.514,6.2,6.2,0,0,1-2.041-1.413,6.493,6.493,0,0,1-1.344-2.16,7.54,7.54,0,0,1-.488-2.731,7.4,7.4,0,0,1,.487-2.729,6.411,6.411,0,0,1,1.343-2.116,6.146,6.146,0,0,1,2.041-1.383,6.632,6.632,0,0,1,2.59-.5h11.988v-4.309h-11.988a11.6,11.6,0,0,0-4.279.778,10.233,10.233,0,0,0-3.421,2.2,9.961,9.961,0,0,0-2.262,3.438,11.882,11.882,0,0,0-.807,4.443,12.266,12.266,0,0,0,.807,4.47,10.8,10.8,0,0,0,2.258,3.583,10.692,10.692,0,0,0,3.417,2.38,10.537,10.537,0,0,0,4.288.87h13.327V574.169h-14.1Z" transform="translate(-1405.724 -565.123)"/><path d="M1571.141,577.469a8.363,8.363,0,0,1-.388,2.711,3.926,3.926,0,0,1-1.227,1.786,5.536,5.536,0,0,1-2.315,1.032,20.444,20.444,0,0,1-7.383,0,5.531,5.531,0,0,1-2.316-1.033,3.918,3.918,0,0,1-1.227-1.786,8.367,8.367,0,0,1-.387-2.71V565.123h-4.427v12.346a13.456,13.456,0,0,0,.669,4.447,7.442,7.442,0,0,0,2.129,3.191,9.214,9.214,0,0,0,3.721,1.871,24.634,24.634,0,0,0,10.849,0,9.216,9.216,0,0,0,3.72-1.871,7.45,7.45,0,0,0,2.13-3.191,13.471,13.471,0,0,0,.669-4.447V565.123h-4.219Z" transform="translate(-1474.048 -565.123)"/><path d="M1670.167,577.954a8.531,8.531,0,0,0,1.217-4.681,9.747,9.747,0,0,0-.552-3.364,7.159,7.159,0,0,0-1.608-2.579,7.072,7.072,0,0,0-2.564-1.639,9.611,9.611,0,0,0-3.4-.567h-15.8v22.162h4.278v-6.01h10.48l5.475,6.01h6.108l-6.685-6.746A6.806,6.806,0,0,0,1670.167,577.954Zm-18.422-8.522h11.519a4.031,4.031,0,0,1,2.868.955,3.9,3.9,0,0,1,1,2.947,4.332,4.332,0,0,1-.97,3.048,3.8,3.8,0,0,1-2.9,1.032h-11.519Z" transform="translate(-1542.518 -565.123)"/><path d="M1739.518,565.123v4.309h8.213v17.853h4.308V569.432h8.212v-4.309Z" transform="translate(-1608.177 -565.123)"/></g><g transform="translate(1088.556 529.685)"><path class="a" d="M1129.091,558.933h0a.143.143,0,0,1-.142-.139l-.5-23.144-11.686,5.027-.593,24.247a.147.147,0,0,1-.143.139.142.142,0,0,1-.141-.141l-.212-24.312a1.14,1.14,0,0,1,.7-1.06l9.721-4.1-13.708-5.745-.5,37.186a.142.142,0,0,1-.142.141h0a.142.142,0,0,1-.142-.141l-.428-37.205-22.611,9.921v26.208c0,20.039,20.6,30.077,23.181,30.077a13.948,13.948,0,0,0,4.89-1.88,39.128,39.128,0,0,0,7.842-5.659c4.766-4.418,10.448-11.915,10.448-22.539V538.056l-5.012-2.384-.673,23.123A.142.142,0,0,1,1129.091,558.933Z" transform="translate(-1088.556 -529.685)"/></g><g transform="translate(1155.562 568.577)"><path d="M1322.253,669.7v-2.134a2.186,2.186,0,0,1,2.4-2.236,2.148,2.148,0,0,1,2.393,2.134c0,.055-.055.092-.148.1l-.988.065c-.1.009-.166-.018-.166-.046v-.055a1.095,1.095,0,0,0-2.189,0v2.226a1.095,1.095,0,0,0,2.189,0c0-.065.055-.111.157-.1l.988.046c.093.009.157.018.157.046v.046a2.156,2.156,0,0,1-2.393,2.152A2.193,2.193,0,0,1,1322.253,669.7Z" transform="translate(-1322.253 -665.327)"/><path d="M1350.436,671.922l-.259-.859c-.009-.037-.027-.046-.055-.046h-2.263c-.028,0-.046.009-.055.046l-.258.859a.171.171,0,0,1-.176.129H1346.3c-.111,0-.166-.074-.129-.175l1.968-6.162a.17.17,0,0,1,.175-.129h1.358a.17.17,0,0,1,.176.129l1.968,6.162c.037.1-.019.175-.13.175h-1.072A.17.17,0,0,1,1350.436,671.922Zm-2.263-1.912h1.635c.037,0,.056-.018.047-.065l-.831-2.817c-.019-.046-.056-.046-.074,0l-.822,2.817C1348.117,669.991,1348.135,670.01,1348.172,670.01Z" transform="translate(-1339.303 -665.511)"/><path d="M1374.23,671.894v-6.152a.142.142,0,0,1,.158-.157h.988a.141.141,0,0,1,.157.157v5.136a.049.049,0,0,0,.055.055h2.965a.141.141,0,0,1,.157.157v.8a.141.141,0,0,1-.157.157h-4.166A.142.142,0,0,1,1374.23,671.894Z" transform="translate(-1359.327 -665.511)"/><path d="M1398.076,671.894v-6.152a.141.141,0,0,1,.157-.157h.988a.141.141,0,0,1,.157.157v6.152a.141.141,0,0,1-.157.157h-.988A.141.141,0,0,1,1398.076,671.894Z" transform="translate(-1376.336 -665.511)"/><path d="M1411.965,671.894v-6.152a.141.141,0,0,1,.157-.157h2.263c1.4,0,2.309.776,2.309,1.958v2.55c0,1.182-.914,1.958-2.309,1.958h-2.263A.141.141,0,0,1,1411.965,671.894Zm1.358-.961h1.108a.958.958,0,0,0,.961-1.053v-2.125a.95.95,0,0,0-.97-1.053h-1.1a.049.049,0,0,0-.056.055v4.12A.049.049,0,0,0,1413.323,670.934Z" transform="translate(-1386.243 -665.511)"/><path d="M1439.309,671.922l-.259-.859c-.009-.037-.027-.046-.055-.046h-2.263c-.027,0-.046.009-.055.046l-.258.859a.171.171,0,0,1-.175.129h-1.072c-.11,0-.166-.074-.129-.175l1.968-6.162a.17.17,0,0,1,.175-.129h1.358a.17.17,0,0,1,.175.129l1.968,6.162c.037.1-.019.175-.13.175h-1.071A.17.17,0,0,1,1439.309,671.922Zm-2.263-1.912h1.635c.037,0,.056-.018.047-.065l-.831-2.817c-.019-.046-.056-.046-.074,0l-.822,2.817C1436.991,669.991,1437.009,670.01,1437.046,670.01Z" transform="translate(-1402.694 -665.511)"/><path d="M1463.1,671.894v-6.152a.141.141,0,0,1,.157-.157h2.263c1.4,0,2.31.776,2.31,1.958v2.55c0,1.182-.915,1.958-2.31,1.958h-2.263A.141.141,0,0,1,1463.1,671.894Zm1.358-.961h1.108a.958.958,0,0,0,.961-1.053v-2.125a.95.95,0,0,0-.97-1.053h-1.1a.049.049,0,0,0-.055.055v4.12A.049.049,0,0,0,1464.463,670.934Z" transform="translate(-1422.72 -665.511)"/><path d="M1504.624,666.7h-2.975a.053.053,0,0,0-.055.055v1.413a.049.049,0,0,0,.055.056h1.931a.141.141,0,0,1,.157.157v.8a.141.141,0,0,1-.157.157h-1.931a.053.053,0,0,0-.055.055v1.478a.053.053,0,0,0,.055.055h2.975a.141.141,0,0,1,.157.157v.8a.141.141,0,0,1-.157.157h-4.175a.141.141,0,0,1-.157-.157v-6.152a.141.141,0,0,1,.157-.157h4.175a.141.141,0,0,1,.157.157v.8A.141.141,0,0,1,1504.624,666.7Z" transform="translate(-1449.244 -665.511)"/><path d="M1524.525,671.894v-6.152a.141.141,0,0,1,.157-.157h.951a.2.2,0,0,1,.185.1l2.31,3.843c.028.046.064.037.064-.018v-3.769a.141.141,0,0,1,.157-.157h.97a.141.141,0,0,1,.157.157v6.152a.141.141,0,0,1-.157.157h-.942a.2.2,0,0,1-.185-.111l-2.319-3.88c-.028-.046-.065-.037-.065.018l.009,3.815a.141.141,0,0,1-.157.157h-.979A.141.141,0,0,1,1524.525,671.894Z" transform="translate(-1466.529 -665.511)"/><path d="M1562.259,670.01v-.157a.141.141,0,0,1,.157-.157h.97c.1,0,.157.046.157.12v.129c0,.471.471.877,1.219.877.7,0,.961-.351.961-.72,0-.471-.471-.638-1.348-.961-.961-.333-2.069-.767-2.069-1.986,0-1.136.933-1.829,2.254-1.829,1.423,0,2.43.794,2.43,1.986v.092a.141.141,0,0,1-.157.157h-.97c-.1,0-.157-.037-.157-.093v-.092c0-.48-.416-.933-1.192-.933-.591,0-.924.259-.924.693,0,.481.406.647,1.432,1.007.84.305,2,.665,2,1.922,0,1.127-.915,1.875-2.365,1.875S1562.259,671.184,1562.259,670.01Z" transform="translate(-1493.444 -665.327)"/><path d="M1591.823,666.7h-2.974a.053.053,0,0,0-.055.055v1.413a.049.049,0,0,0,.055.056h1.931a.141.141,0,0,1,.157.157v.8a.141.141,0,0,1-.157.157h-1.931a.053.053,0,0,0-.055.055v1.478a.053.053,0,0,0,.055.055h2.974a.141.141,0,0,1,.157.157v.8a.141.141,0,0,1-.157.157h-4.175a.141.141,0,0,1-.157-.157v-6.152a.141.141,0,0,1,.157-.157h4.175a.141.141,0,0,1,.157.157v.8A.141.141,0,0,1,1591.823,666.7Z" transform="translate(-1511.441 -665.511)"/><path d="M1611.273,669.669V667.6a2.208,2.208,0,0,1,2.4-2.272,2.169,2.169,0,0,1,2.384,2.088v.018a.141.141,0,0,1-.157.157h-.989c-.1,0-.157-.037-.157-.074v-.065a1,1,0,0,0-1.081-1.007,1.047,1.047,0,0,0-1.1,1.118v2.143a1.089,1.089,0,0,0,1.145,1.118.934.934,0,0,0,1.053-.961v-.406a.053.053,0,0,0-.055-.056h-.979a.142.142,0,0,1-.157-.157v-.757a.141.141,0,0,1,.157-.157h2.162a.141.141,0,0,1,.157.157v1.173a2.177,2.177,0,0,1-2.384,2.282A2.213,2.213,0,0,1,1611.273,669.669Z" transform="translate(-1528.405 -665.327)"/><path d="M1636.536,669.908v-4.166a.141.141,0,0,1,.157-.157h.988a.141.141,0,0,1,.157.157v4.175a1.09,1.09,0,0,0,2.18,0v-4.175a.142.142,0,0,1,.157-.157h.989a.141.141,0,0,1,.157.157v4.166a2.4,2.4,0,0,1-4.785,0Z" transform="translate(-1546.424 -665.511)"/><path d="M1665.78,671.908l-1.136-2.513a.07.07,0,0,0-.065-.046h-.841a.049.049,0,0,0-.055.055v2.466a.141.141,0,0,1-.157.157h-.988a.141.141,0,0,1-.157-.157v-6.161a.141.141,0,0,1,.157-.157h2.6a1.855,1.855,0,0,1,1.977,1.949,1.724,1.724,0,0,1-1.182,1.718.046.046,0,0,0-.027.074l1.219,2.55c.055.1.009.185-.111.185h-1.044A.2.2,0,0,1,1665.78,671.908Zm-2.1-5.173v1.552a.053.053,0,0,0,.055.055h1.2a.811.811,0,0,0,.877-.822.82.82,0,0,0-.877-.84h-1.2A.049.049,0,0,0,1663.683,666.734Z" transform="translate(-1564.858 -665.487)"/><path d="M1687.579,671.894v-6.152a.141.141,0,0,1,.157-.157h.988a.141.141,0,0,1,.157.157v6.152a.141.141,0,0,1-.157.157h-.988A.141.141,0,0,1,1687.579,671.894Z" transform="translate(-1582.832 -665.511)"/><path d="M1701.468,671.894v-6.152a.141.141,0,0,1,.157-.157h2.263c1.4,0,2.31.776,2.31,1.958v2.55c0,1.182-.915,1.958-2.31,1.958h-2.263A.141.141,0,0,1,1701.468,671.894Zm1.358-.961h1.108a.958.958,0,0,0,.961-1.053v-2.125a.95.95,0,0,0-.97-1.053h-1.1a.049.049,0,0,0-.055.055v4.12A.049.049,0,0,0,1702.826,670.934Z" transform="translate(-1592.738 -665.511)"/><path d="M1728.813,671.922l-.259-.859c-.009-.037-.027-.046-.055-.046h-2.263c-.027,0-.046.009-.055.046l-.259.859a.171.171,0,0,1-.176.129h-1.072c-.111,0-.166-.074-.129-.175l1.968-6.162a.17.17,0,0,1,.176-.129h1.358a.17.17,0,0,1,.175.129l1.968,6.162c.037.1-.019.175-.129.175h-1.072A.17.17,0,0,1,1728.813,671.922Zm-2.263-1.912h1.635c.037,0,.056-.018.046-.065l-.831-2.817c-.019-.046-.055-.046-.074,0l-.822,2.817C1726.494,669.991,1726.513,670.01,1726.55,670.01Z" transform="translate(-1609.191 -665.511)"/><path d="M1752.608,671.894v-6.152a.141.141,0,0,1,.157-.157h2.263c1.4,0,2.309.776,2.309,1.958v2.55c0,1.182-.914,1.958-2.309,1.958h-2.263A.141.141,0,0,1,1752.608,671.894Zm1.358-.961h1.108a.958.958,0,0,0,.961-1.053v-2.125a.95.95,0,0,0-.97-1.053h-1.1a.049.049,0,0,0-.056.055v4.12A.049.049,0,0,0,1753.966,670.934Z" transform="translate(-1629.216 -665.511)"/></g></g></svg>