<svg xmlns="http://www.w3.org/2000/svg" width="279" height="89.072" viewBox="0 0 279 89.072"><defs><style>.a{fill:#fff;}</style></defs><g transform="translate(-1088.556 -529.685)"><g transform="translate(1162.96 543.355)"><path class="a" d="M1304.054,577.293h-13.331a3.361,3.361,0,0,1-2.418-.824,3.03,3.03,0,0,1-.868-2.342,3.135,3.135,0,0,1,.853-2.367,3.409,3.409,0,0,1,2.474-.839h21.252v-5.8h-21.252a11.471,11.471,0,0,0-3.967.643,8.517,8.517,0,0,0-2.943,1.777,7.343,7.343,0,0,0-1.809,2.712,9.363,9.363,0,0,0-.6,3.391,9.1,9.1,0,0,0,.647,3.458,7.952,7.952,0,0,0,1.845,2.744,8.39,8.39,0,0,0,2.924,1.8,10.915,10.915,0,0,0,3.827.643h13.371a4.389,4.389,0,0,1,2.911.855,3.15,3.15,0,0,1,.976,2.552,3.26,3.26,0,0,1-.989,2.5,4.086,4.086,0,0,1-2.9.943h-22.175v5.8h22.175a11.7,11.7,0,0,0,4.109-.663,8.049,8.049,0,0,0,2.95-1.866,7.752,7.752,0,0,0,1.764-2.831,10.421,10.421,0,0,0,.581-3.523c0-2.92-.814-5.137-2.419-6.589S1307.091,577.293,1304.054,577.293Z" transform="translate(-1281.439 -565.123)"/><path class="a" d="M1382.256,582.289h15.485v-5h-15.485V570.92h20.937v-5.8H1376.5v29.816h26.734v-5.8h-20.978Z" transform="translate(-1339.83 -565.123)"/><path class="a" d="M1469.135,582.289h13.131v6.854h-12.094a8.691,8.691,0,0,1-3.481-.691,8.337,8.337,0,0,1-2.746-1.9,8.733,8.733,0,0,1-1.808-2.906,10.143,10.143,0,0,1-.657-3.674,9.951,9.951,0,0,1,.656-3.671,8.628,8.628,0,0,1,1.807-2.846,8.269,8.269,0,0,1,2.745-1.861,8.924,8.924,0,0,1,3.485-.672H1486.3v-5.8h-16.128a15.6,15.6,0,0,0-5.756,1.046,13.766,13.766,0,0,0-4.6,2.959,13.4,13.4,0,0,0-3.044,4.625,15.986,15.986,0,0,0-1.086,5.977,16.505,16.505,0,0,0,1.085,6.014,14.532,14.532,0,0,0,3.038,4.821,14.383,14.383,0,0,0,4.6,3.2,14.177,14.177,0,0,0,5.769,1.171h17.93V577.293h-18.967Z" transform="translate(-1388.469 -565.123)"/><path class="a" d="M1577.934,581.733a11.252,11.252,0,0,1-.522,3.647,5.281,5.281,0,0,1-1.65,2.4,7.446,7.446,0,0,1-3.114,1.389,27.507,27.507,0,0,1-9.932,0,7.442,7.442,0,0,1-3.116-1.39,5.271,5.271,0,0,1-1.65-2.4,11.257,11.257,0,0,1-.52-3.646v-16.61h-5.957v16.61a18.1,18.1,0,0,0,.9,5.983,10.011,10.011,0,0,0,2.864,4.293,12.4,12.4,0,0,0,5.006,2.517,33.139,33.139,0,0,0,14.6,0,12.4,12.4,0,0,0,5.005-2.517,10.022,10.022,0,0,0,2.865-4.293,18.125,18.125,0,0,0,.9-5.983v-16.61h-5.676Z" transform="translate(-1447.309 -565.123)"/><path class="a" d="M1678.007,582.385a11.476,11.476,0,0,0,1.638-6.3,13.112,13.112,0,0,0-.743-4.526,9.633,9.633,0,0,0-2.163-3.47,9.515,9.515,0,0,0-3.45-2.205,12.932,12.932,0,0,0-4.569-.763h-21.254v29.816h5.756v-8.086h14.1l7.365,8.086h8.218l-8.994-9.075A9.155,9.155,0,0,0,1678.007,582.385Zm-24.785-11.465h15.5a5.423,5.423,0,0,1,3.858,1.284,5.246,5.246,0,0,1,1.35,3.964,5.827,5.827,0,0,1-1.3,4.1,5.112,5.112,0,0,1-3.9,1.388h-15.5Z" transform="translate(-1506.273 -565.123)"/><path class="a" d="M1739.518,565.123v5.8h11.049v24.019h5.8V570.92h11.049v-5.8Z" transform="translate(-1562.816 -565.123)"/></g><g transform="translate(1088.556 529.685)"><path class="a" d="M1143.09,569.034h0a.192.192,0,0,1-.191-.187l-.673-31.137-15.722,6.763-.8,32.621a.2.2,0,0,1-.193.187.191.191,0,0,1-.19-.19l-.285-32.708a1.534,1.534,0,0,1,.938-1.426l13.078-5.515-18.443-7.73-.677,50.029a.191.191,0,0,1-.191.189h0a.192.192,0,0,1-.191-.189l-.576-50.055-30.419,13.347v35.259c0,26.959,27.714,40.465,31.187,40.465.951,0,3.354-.782,6.579-2.529a52.639,52.639,0,0,0,10.551-7.614c6.412-5.944,14.056-16.03,14.056-30.323V540.947l-6.743-3.208-.906,31.109A.191.191,0,0,1,1143.09,569.034Z" transform="translate(-1088.556 -529.685)"/></g><g transform="translate(1178.703 582.008)"><path class="a" d="M1322.253,671.205v-2.871a2.941,2.941,0,0,1,3.231-3.008c1.927,0,3.219,1.143,3.219,2.871,0,.074-.075.124-.2.137l-1.33.087c-.137.012-.223-.025-.223-.062v-.074a1.473,1.473,0,0,0-2.946,0v2.995a1.473,1.473,0,0,0,2.946,0c0-.087.074-.149.211-.137l1.33.062c.125.012.212.025.212.062v.062a2.9,2.9,0,0,1-3.219,2.9A2.95,2.95,0,0,1,1322.253,671.205Z" transform="translate(-1322.253 -665.327)"/><path class="a" d="M1351.913,674.11l-.348-1.156c-.012-.05-.037-.062-.074-.062h-3.045c-.037,0-.062.012-.075.062l-.348,1.156a.229.229,0,0,1-.236.174h-1.442c-.149,0-.224-.1-.174-.236l2.647-8.29a.228.228,0,0,1,.236-.174h1.827a.229.229,0,0,1,.236.174l2.647,8.29c.049.136-.025.236-.174.236h-1.442A.229.229,0,0,1,1351.913,674.11Zm-3.045-2.572h2.2c.05,0,.075-.025.063-.087l-1.118-3.79c-.025-.062-.075-.062-.1,0l-1.106,3.79C1348.794,671.513,1348.819,671.538,1348.869,671.538Z" transform="translate(-1336.936 -665.485)"/><path class="a" d="M1374.23,674.073V665.8a.19.19,0,0,1,.212-.211h1.33a.19.19,0,0,1,.211.211v6.91a.066.066,0,0,0,.074.074h3.99a.19.19,0,0,1,.211.211v1.081a.19.19,0,0,1-.211.211h-5.6A.191.191,0,0,1,1374.23,674.073Z" transform="translate(-1354.18 -665.485)"/><path class="a" d="M1398.076,674.073V665.8a.19.19,0,0,1,.211-.211h1.33a.19.19,0,0,1,.211.211v8.277a.19.19,0,0,1-.211.211h-1.33A.19.19,0,0,1,1398.076,674.073Z" transform="translate(-1368.828 -665.485)"/><path class="a" d="M1411.965,674.073V665.8a.19.19,0,0,1,.211-.211h3.045c1.877,0,3.107,1.044,3.107,2.634v3.43c0,1.591-1.23,2.635-3.107,2.635h-3.045A.19.19,0,0,1,1411.965,674.073Zm1.827-1.292h1.491a1.289,1.289,0,0,0,1.292-1.417v-2.858a1.278,1.278,0,0,0-1.3-1.417h-1.479a.066.066,0,0,0-.075.075v5.543A.066.066,0,0,0,1413.792,672.781Z" transform="translate(-1377.359 -665.485)"/><path class="a" d="M1440.787,674.11l-.348-1.156c-.012-.05-.037-.062-.074-.062h-3.045c-.037,0-.062.012-.074.062l-.348,1.156a.23.23,0,0,1-.236.174h-1.442c-.149,0-.224-.1-.174-.236l2.647-8.29a.228.228,0,0,1,.236-.174h1.827a.229.229,0,0,1,.236.174l2.647,8.29c.05.136-.025.236-.174.236h-1.441A.229.229,0,0,1,1440.787,674.11Zm-3.045-2.572h2.2c.05,0,.075-.025.063-.087l-1.118-3.79c-.025-.062-.075-.062-.1,0l-1.106,3.79C1437.668,671.513,1437.693,671.538,1437.742,671.538Z" transform="translate(-1391.527 -665.485)"/><path class="a" d="M1463.1,674.073V665.8a.19.19,0,0,1,.211-.211h3.045c1.877,0,3.107,1.044,3.107,2.634v3.43c0,1.591-1.23,2.635-3.107,2.635h-3.045A.19.19,0,0,1,1463.1,674.073Zm1.827-1.292h1.491a1.289,1.289,0,0,0,1.293-1.417v-2.858a1.279,1.279,0,0,0-1.3-1.417h-1.479a.066.066,0,0,0-.074.075v5.543A.066.066,0,0,0,1464.932,672.781Z" transform="translate(-1408.772 -665.485)"/><path class="a" d="M1506.12,667.089h-4a.072.072,0,0,0-.074.075v1.9a.066.066,0,0,0,.074.075h2.6a.19.19,0,0,1,.211.211v1.081a.19.19,0,0,1-.211.211h-2.6a.072.072,0,0,0-.074.074v1.988a.072.072,0,0,0,.074.074h4a.19.19,0,0,1,.211.211v1.081a.19.19,0,0,1-.211.211H1500.5a.19.19,0,0,1-.212-.211V665.8a.19.19,0,0,1,.212-.211h5.617a.19.19,0,0,1,.211.211v1.081A.19.19,0,0,1,1506.12,667.089Z" transform="translate(-1431.614 -665.485)"/><path class="a" d="M1524.525,674.073V665.8a.19.19,0,0,1,.212-.211h1.279a.263.263,0,0,1,.249.136l3.107,5.17c.037.062.087.05.087-.025V665.8a.19.19,0,0,1,.212-.211h1.3a.19.19,0,0,1,.211.211v8.277a.19.19,0,0,1-.211.211h-1.268a.273.273,0,0,1-.249-.149l-3.119-5.22c-.037-.062-.087-.05-.087.025l.012,5.133a.19.19,0,0,1-.211.211h-1.317A.19.19,0,0,1,1524.525,674.073Z" transform="translate(-1446.5 -665.485)"/><path class="a" d="M1562.259,671.628v-.211a.19.19,0,0,1,.212-.211h1.3c.137,0,.211.062.211.162v.174c0,.634.634,1.18,1.641,1.18.944,0,1.292-.472,1.292-.969,0-.634-.634-.858-1.814-1.293-1.293-.448-2.784-1.032-2.784-2.672,0-1.529,1.255-2.461,3.032-2.461,1.914,0,3.269,1.069,3.269,2.672v.124a.19.19,0,0,1-.211.211h-1.305c-.137,0-.211-.05-.211-.125v-.124c0-.646-.559-1.255-1.6-1.255-.8,0-1.242.348-1.242.932,0,.647.546.87,1.926,1.355,1.131.41,2.7.895,2.7,2.585,0,1.516-1.23,2.523-3.182,2.523S1562.259,673.206,1562.259,671.628Z" transform="translate(-1469.678 -665.327)"/><path class="a" d="M1593.319,667.089h-4a.071.071,0,0,0-.074.075v1.9a.066.066,0,0,0,.074.075h2.6a.19.19,0,0,1,.211.211v1.081a.19.19,0,0,1-.211.211h-2.6a.071.071,0,0,0-.074.074v1.988a.071.071,0,0,0,.074.074h4a.19.19,0,0,1,.212.211v1.081a.19.19,0,0,1-.212.211H1587.7a.19.19,0,0,1-.211-.211V665.8a.19.19,0,0,1,.211-.211h5.617a.19.19,0,0,1,.212.211v1.081A.19.19,0,0,1,1593.319,667.089Z" transform="translate(-1485.177 -665.485)"/><path class="a" d="M1611.273,671.168v-2.784a2.971,2.971,0,0,1,3.231-3.057,2.918,2.918,0,0,1,3.207,2.809v.025a.19.19,0,0,1-.211.211h-1.33c-.137,0-.211-.05-.211-.1v-.087a1.346,1.346,0,0,0-1.454-1.355,1.409,1.409,0,0,0-1.479,1.5v2.883a1.465,1.465,0,0,0,1.541,1.5,1.257,1.257,0,0,0,1.417-1.292v-.547a.072.072,0,0,0-.074-.075h-1.318a.19.19,0,0,1-.211-.211v-1.019a.19.19,0,0,1,.211-.211h2.909a.19.19,0,0,1,.211.211v1.578a2.929,2.929,0,0,1-3.207,3.07A2.978,2.978,0,0,1,1611.273,671.168Z" transform="translate(-1499.785 -665.327)"/><path class="a" d="M1636.536,671.4v-5.6a.19.19,0,0,1,.211-.211h1.33a.19.19,0,0,1,.211.211v5.617a1.466,1.466,0,0,0,2.933,0V665.8a.19.19,0,0,1,.212-.211h1.33a.19.19,0,0,1,.211.211v5.6a3.228,3.228,0,0,1-6.438,0Z" transform="translate(-1515.303 -665.485)"/><path class="a" d="M1666.954,674.1l-1.529-3.38a.094.094,0,0,0-.087-.062h-1.131a.066.066,0,0,0-.074.074v3.318a.19.19,0,0,1-.212.211h-1.33a.19.19,0,0,1-.211-.211v-8.289a.19.19,0,0,1,.211-.211h3.492a2.5,2.5,0,0,1,2.659,2.622,2.319,2.319,0,0,1-1.591,2.312.062.062,0,0,0-.037.1l1.64,3.43c.074.137.012.248-.149.248h-1.4A.271.271,0,0,1,1666.954,674.1Zm-2.821-6.96v2.088a.071.071,0,0,0,.074.074h1.616A1.091,1.091,0,0,0,1667,668.2a1.1,1.1,0,0,0-1.18-1.131h-1.616A.066.066,0,0,0,1664.133,667.143Z" transform="translate(-1531.177 -665.465)"/><path class="a" d="M1687.579,674.073V665.8a.19.19,0,0,1,.212-.211h1.33a.19.19,0,0,1,.211.211v8.277a.19.19,0,0,1-.211.211h-1.33A.19.19,0,0,1,1687.579,674.073Z" transform="translate(-1546.656 -665.485)"/><path class="a" d="M1701.468,674.073V665.8a.19.19,0,0,1,.211-.211h3.045c1.877,0,3.107,1.044,3.107,2.634v3.43c0,1.591-1.23,2.635-3.107,2.635h-3.045A.19.19,0,0,1,1701.468,674.073Zm1.827-1.292h1.491a1.289,1.289,0,0,0,1.293-1.417v-2.858a1.278,1.278,0,0,0-1.3-1.417H1703.3a.066.066,0,0,0-.075.075v5.543A.066.066,0,0,0,1703.3,672.781Z" transform="translate(-1555.188 -665.485)"/><path class="a" d="M1730.29,674.11l-.348-1.156c-.013-.05-.037-.062-.075-.062h-3.045c-.037,0-.062.012-.074.062l-.348,1.156a.23.23,0,0,1-.236.174h-1.442c-.149,0-.224-.1-.174-.236l2.647-8.29a.228.228,0,0,1,.236-.174h1.827a.229.229,0,0,1,.236.174l2.647,8.29c.05.136-.025.236-.174.236h-1.442A.229.229,0,0,1,1730.29,674.11Zm-3.045-2.572h2.2c.05,0,.075-.025.063-.087l-1.119-3.79c-.025-.062-.074-.062-.1,0l-1.106,3.79C1727.171,671.513,1727.2,671.538,1727.246,671.538Z" transform="translate(-1569.356 -665.485)"/><path class="a" d="M1752.608,674.073V665.8a.19.19,0,0,1,.211-.211h3.044c1.877,0,3.107,1.044,3.107,2.634v3.43c0,1.591-1.23,2.635-3.107,2.635h-3.044A.19.19,0,0,1,1752.608,674.073Zm1.827-1.292h1.491a1.289,1.289,0,0,0,1.293-1.417v-2.858a1.278,1.278,0,0,0-1.3-1.417h-1.479a.066.066,0,0,0-.075.075v5.543A.066.066,0,0,0,1754.435,672.781Z" transform="translate(-1586.601 -665.485)"/></g></g></svg>