<svg xmlns="http://www.w3.org/2000/svg" width="26" height="24" viewBox="0 0 26 24"><defs><style>.a{fill:#fff;}.b{fill:#ab1d37;}</style></defs><g transform="translate(-385 -33)"><rect class="a" width="26" height="24" rx="4" transform="translate(385 33)"/><path class="b" d="M.653,62.939h16.98a.653.653,0,0,0,.653-.653V60.653A.653.653,0,0,0,17.633,60H.653A.653.653,0,0,0,0,60.653v1.633A.653.653,0,0,0,.653,62.939Zm0,6.531h16.98a.653.653,0,0,0,.653-.653V67.184a.653.653,0,0,0-.653-.653H.653A.653.653,0,0,0,0,67.184v1.633A.653.653,0,0,0,.653,69.469ZM.653,76h16.98a.653.653,0,0,0,.653-.653V73.714a.653.653,0,0,0-.653-.653H.653A.653.653,0,0,0,0,73.714v1.633A.653.653,0,0,0,.653,76Z" transform="translate(389 -23)"/></g></svg>