<svg xmlns="http://www.w3.org/2000/svg" width="768" height="230.958" viewBox="0 0 768 230.958"><defs><style>.a{font-size:75px;font-family:Barlow-Medium, Barlow;font-weight:500;letter-spacing:-0.025em;}</style></defs><g transform="translate(-276 -298.474)"><text class="a" transform="translate(276 514.432)"><tspan x="0" y="0">CALIDAD EN SEGURIDAD</tspan></text><g transform="translate(278.979 298.474)"><path d="M1365.446,610.331h-49.522c-3.853,0-6.791-1-8.983-3.061-2.171-2.038-3.225-4.882-3.225-8.7s1.038-6.708,3.17-8.794c2.115-2.069,5.208-3.118,9.19-3.118h78.947V565.123h-78.947a42.613,42.613,0,0,0-14.737,2.387,31.639,31.639,0,0,0-10.932,6.6,27.283,27.283,0,0,0-6.72,10.075,34.779,34.779,0,0,0-2.247,12.6,33.813,33.813,0,0,0,2.4,12.844,29.558,29.558,0,0,0,6.852,10.194,31.176,31.176,0,0,0,10.864,6.681,40.547,40.547,0,0,0,14.218,2.389h49.671c4.7,0,8.346,1.069,10.815,3.177,2.44,2.09,3.625,5.19,3.625,9.479a12.11,12.11,0,0,1-3.672,9.3c-2.464,2.326-6.086,3.505-10.767,3.505h-82.374v21.531h82.374a43.48,43.48,0,0,0,15.263-2.462,29.91,29.91,0,0,0,10.958-6.931,28.8,28.8,0,0,0,6.552-10.517,38.706,38.706,0,0,0,2.158-13.088c0-10.847-3.022-19.083-8.986-24.478C1385.459,613.048,1376.73,610.331,1365.446,610.331Z" transform="translate(-1281.439 -565.122)"/><path d="M1397.883,628.89H1455.4V610.332h-57.521V586.658h77.776V565.123H1376.5v110.76h99.312V654.351h-77.928Z" transform="translate(-1240.283 -565.123)"/><path d="M1505.651,628.891h48.778v25.46H1509.5a32.285,32.285,0,0,1-12.933-2.568,30.972,30.972,0,0,1-10.2-7.06,32.459,32.459,0,0,1-6.715-10.794,37.676,37.676,0,0,1-2.44-13.649,36.962,36.962,0,0,1,2.436-13.639,32.041,32.041,0,0,1,6.71-10.574,30.715,30.715,0,0,1,10.2-6.913,33.143,33.143,0,0,1,12.944-2.5h59.912V565.123H1509.5a57.957,57.957,0,0,0-21.383,3.886,51.146,51.146,0,0,0-17.1,10.992,49.788,49.788,0,0,0-11.307,17.182,59.39,59.39,0,0,0-4.035,22.2,61.3,61.3,0,0,0,4.031,22.341A53.994,53.994,0,0,0,1471,659.639a53.45,53.45,0,0,0,17.076,11.893,52.662,52.662,0,0,0,21.432,4.351h66.606V610.331h-70.459Z" transform="translate(-1206.002 -565.122)"/><path d="M1649.769,626.824a41.808,41.808,0,0,1-1.937,13.547,19.622,19.622,0,0,1-6.13,8.926,27.665,27.665,0,0,1-11.569,5.16,102.172,102.172,0,0,1-36.9,0,27.647,27.647,0,0,1-11.574-5.163,19.584,19.584,0,0,1-6.13-8.926,41.817,41.817,0,0,1-1.933-13.544v-61.7h-22.127v61.7a67.24,67.24,0,0,0,3.344,22.226A37.193,37.193,0,0,0,1565.457,665c4.786,4.18,11.042,7.326,18.6,9.352,7.46,2.006,16.556,3.022,27.035,3.022,10.576,0,19.722-1.016,27.185-3.022,7.551-2.026,13.807-5.171,18.593-9.352a37.229,37.229,0,0,0,10.644-15.947,67.322,67.322,0,0,0,3.344-22.226v-61.7h-21.085Z" transform="translate(-1164.53 -565.122)"/><path d="M1760.917,629.247c4.036-6.286,6.083-14.157,6.083-23.393a48.706,48.706,0,0,0-2.759-16.814,35.778,35.778,0,0,0-8.035-12.889,35.338,35.338,0,0,0-12.816-8.192,48.034,48.034,0,0,0-16.973-2.836h-78.951V675.882h21.382V645.845h52.377l27.36,30.037h30.526L1745.7,642.17A34.014,34.014,0,0,0,1760.917,629.247Zm-92.069-42.59h57.57c6.163,0,10.986,1.605,14.333,4.77,3.326,3.144,5.013,8.1,5.013,14.726,0,6.66-1.632,11.784-4.848,15.231-3.2,3.424-8.074,5.158-14.5,5.158h-57.57Z" transform="translate(-1122.971 -565.122)"/><path d="M1739.518,565.123v21.535h41.046v89.225H1802.1V586.658h41.043V565.123Z" transform="translate(-1083.118 -565.123)"/></g></g></svg>