<svg xmlns="http://www.w3.org/2000/svg" width="261.629" height="265.5" viewBox="0 0 261.629 265.5"><defs><style>.a{fill:#bc1d3c;}</style></defs><g transform="translate(0)"><path class="a" d="M3100.439-431.166H3305.87v149.234h3.871V-435.038H3096.567v153.106h3.872Z" transform="translate(-3072.34 539.689)"/><path class="a" d="M3140.988-567.248h153.1v70.772h3.872v-74.644H3258.72v-22.239h11.146v-3.871H3165.215v3.871h11.145v22.239h-39.244v74.644h3.872Z" transform="translate(-3086.726 597.229)"/><rect class="a" width="261.629" height="3.871" transform="translate(0 261.629)"/><rect class="a" width="54.661" height="20.981" transform="translate(64.24 40.013)"/><rect class="a" width="54.661" height="20.981" transform="translate(64.24 73.222)"/><rect class="a" width="54.661" height="20.981" transform="translate(142.728 40.222)"/><rect class="a" width="54.661" height="20.981" transform="translate(142.728 73.43)"/><rect class="a" width="54.661" height="15.593" transform="translate(38.077 118.501)"/><rect class="a" width="54.661" height="15.593" transform="translate(103.484 118.501)"/><rect class="a" width="54.661" height="15.593" transform="translate(168.891 118.501)"/><rect class="a" width="54.661" height="15.593" transform="translate(38.077 144.445)"/><rect class="a" width="54.661" height="15.593" transform="translate(103.484 144.445)"/><rect class="a" width="54.661" height="15.593" transform="translate(168.891 144.445)"/><rect class="a" width="54.661" height="15.593" transform="translate(38.077 170.608)"/><rect class="a" width="54.661" height="15.593" transform="translate(103.484 170.608)"/><rect class="a" width="54.661" height="15.593" transform="translate(103.484 196.771)"/><rect class="a" width="54.661" height="15.593" transform="translate(168.891 170.608)"/><rect class="a" width="54.661" height="15.593" transform="translate(38.077 196.771)"/><rect class="a" width="54.661" height="15.593" transform="translate(168.891 196.771)"/><path class="a" d="M3375.846-217.4v-35.742h-56.5V-217.4h4.173v-31.57h48.154v31.57Z" transform="translate(-3151.375 475.159)"/><path class="a" d="M3238.514-217.4v-35.742h-56.5v4.391h-65.407V-217.4h4.173v-27.179h61.235V-217.4h4.173v-31.57h48.153v31.57Z" transform="translate(-3079.45 475.159)"/><rect class="a" width="2.335" height="28.262" transform="translate(129.647 229.495)"/></g></svg>