<svg xmlns="http://www.w3.org/2000/svg" width="265.5" height="228.113" viewBox="0 0 265.5 228.113"><defs><style>.a{fill:none;}.b{fill:#bc1d3c;}</style></defs><g transform="translate(0 0)"><g transform="translate(0 0)"><g transform="translate(0 0)"><path class="a" d="M1129.516-411.621h-92.345a1.167,1.167,0,0,0-1.168,1.167,1.167,1.167,0,0,0,1.168,1.167h92.345a1.167,1.167,0,0,0,1.167-1.167A1.167,1.167,0,0,0,1129.516-411.621Z" transform="translate(-870.938 464.715)"/><path class="a" d="M881.589-411.621H789.244a1.167,1.167,0,0,0-1.167,1.167,1.167,1.167,0,0,0,1.167,1.167h92.345a1.167,1.167,0,0,0,1.167-1.167A1.167,1.167,0,0,0,881.589-411.621Z" transform="translate(-782.982 464.715)"/><path class="b" d="M1045.681-437.694a6.607,6.607,0,0,0-1.947-4.7l-51.512-51.512H833.641L782.128-442.4a6.606,6.606,0,0,0-1.947,4.7v26.129l80.648.729a57.246,57.246,0,0,1,52.1-33.65A57.246,57.246,0,0,1,965.267-410.3l80.413.775Zm-166.893-.785H786.443a1.167,1.167,0,0,1-1.167-1.167,1.167,1.167,0,0,1,1.167-1.167h92.345a1.167,1.167,0,0,1,1.167,1.167A1.167,1.167,0,0,1,878.788-438.479Zm159.971,0H946.414a1.167,1.167,0,0,1-1.168-1.167,1.167,1.167,0,0,1,1.168-1.167h92.345a1.167,1.167,0,0,1,1.167,1.167A1.167,1.167,0,0,1,1038.759-438.479Z" transform="translate(-780.181 493.908)"/></g><g transform="translate(1.935 52.326)"><rect class="b" width="261.629" height="3.871" transform="translate(0 171.916)"/><path class="b" d="M966.354-372.766a54.349,54.349,0,0,0-52.359-40.046,54.35,54.35,0,0,0-52.359,40.046H783.181v3.871h11.146v124.128H798.2V-368.895h62.536a54.277,54.277,0,0,0-1,10.344,19.317,19.317,0,0,0,5.711,13.723v100.06h3.871v-97.074a19.256,19.256,0,0,0,9.8,2.668,19.4,19.4,0,0,0,17.442-10.939,19.408,19.408,0,0,0,16.275,10.9v45.994H900.913v3.871h11.914v44.583h2.334V-289.35h11.914v-3.871H915.162v-45.994a19.406,19.406,0,0,0,16.275-10.9,19.4,19.4,0,0,0,17.442,10.939,19.256,19.256,0,0,0,9.8-2.668v97.074h3.871v-100.06a19.318,19.318,0,0,0,5.711-13.723,54.277,54.277,0,0,0-1-10.344h62.537v124.128h3.871V-368.895h11.146v-3.871ZM963.191-358.3H864.8v-2.334h98.391Z" transform="translate(-783.181 412.812)"/><rect class="b" width="53.489" height="73.266" transform="translate(186.181 67.343)"/><rect class="b" width="53.489" height="73.266" transform="translate(21.896 67.343)"/></g></g></g></svg>