<svg xmlns="http://www.w3.org/2000/svg" width="281.327" height="196.419" viewBox="0 0 281.327 196.419"><defs><style>.a{fill:#bc1d3c;}</style></defs><path class="a" d="M6.994,0H274.332a6.995,6.995,0,0,1,6.995,6.995V27.983a6.995,6.995,0,0,1-6.995,6.995H6.994A6.994,6.994,0,0,1,0,27.983V6.994A6.994,6.994,0,0,1,6.994,0Z" transform="translate(0 161.442)"/><path class="a" d="M3088.1-992.329a121.026,121.026,0,0,1,83.454-115.126v-4.386a125.2,125.2,0,0,0-87.638,119.512v19.194h4.184Z" transform="translate(-3068.52 1129.148)"/><path class="a" d="M3400.99-992.328v19.194h4.184v-19.194a125.2,125.2,0,0,0-87.638-119.512v4.385A121.022,121.022,0,0,1,3400.99-992.328Z" transform="translate(-3139.243 1129.148)"/><path class="a" d="M3222.273-1009.729l53.891.657h.076a5.892,5.892,0,0,0,4.171-1.715,5.894,5.894,0,0,0,1.766-4.225v-115.054a5.962,5.962,0,0,0-5.867-5.94l-53.892-.658h-.074a5.9,5.9,0,0,0-4.173,1.714,5.9,5.9,0,0,0-1.765,4.225v115.055A5.963,5.963,0,0,0,3222.273-1009.729Z" transform="translate(-3108.628 1136.662)"/></svg>