<svg xmlns="http://www.w3.org/2000/svg" width="284.599" height="231.891" viewBox="0 0 284.599 231.891"><defs><style>.a{fill:#ab1d37;}</style></defs><path class="a" d="M824.939-1152.678h66.938v190.8h4.211v-20.873h25.085v20.873h31v-20.873h25.085v20.873h4.211v-162.337h66.939v162.337h4.211v-166.548h-71.15v-56.92H891.878v28.46h-71.15v195.008h4.211Zm71.15-.835H935.4v25.92H896.089Zm0,28.459H935.4v25.921H896.089Zm41.855,82.84v-25.921h39.313v25.921Zm39.313,2.539v25.921H937.944v-25.921Zm-39.313-31v-25.92h39.313v25.92Zm0-28.46v-25.921h39.313v25.921Zm-41.855,2.539H935.4v25.92H896.089Zm0,28.46H935.4v25.921H896.089Zm0,28.46H935.4v25.921H896.089Zm0,54.38v-25.921H935.4v4.576H921.174v21.345Zm56.084,0v-21.345H937.944v-4.576h39.313v25.921Zm25.085-142.3H937.944v-25.92h39.313v25.92Zm0-28.46H937.944v-25.085h39.313Zm-81.168-25.085H935.4v25.085H896.089v-25.085Z" transform="translate(-794.374 1185.349)"/><path class="a" d="M834.049-1068.447h25.294v-22.486H834.049Zm2.539-19.947H856.8v17.407H836.588Z" transform="translate(-798.345 1157.202)"/><path class="a" d="M904.035-1090.933H878.741v22.486h25.294Zm-2.54,19.947H881.281v-17.407H901.5Z" transform="translate(-811.669 1157.202)"/><path class="a" d="M859.343-1131.481H834.049v22.486h25.294Zm-2.539,19.947H836.588v-17.407H856.8Z" transform="translate(-798.345 1169.29)"/><path class="a" d="M904.035-1131.481H878.741v22.486h25.294Zm-2.54,19.947H881.281v-17.407H901.5Z" transform="translate(-811.669 1169.29)"/><path class="a" d="M1113.452-1090.933H1056.7v22.486h56.752Zm-2.54,19.947H1059.24v-17.407h51.672Z" transform="translate(-864.722 1157.202)"/><path class="a" d="M1113.452-1050.385H1056.7v22.486h56.752Zm-2.54,19.947H1059.24v-17.407h51.672Z" transform="translate(-864.722 1145.114)"/><path class="a" d="M1113.452-1009.837H1056.7v22.486h56.752Zm-2.54,19.947H1059.24V-1007.3h51.672Z" transform="translate(-864.722 1133.026)"/><path class="a" d="M1082.088-969.289H1056.7V-946.8h25.388Zm-2.539,19.947H1059.24V-966.75h20.308Z" transform="translate(-864.722 1120.938)"/><path class="a" d="M1126.774-969.289h-25.388V-946.8h25.388Zm-2.54,19.947h-20.308V-966.75h20.308Z" transform="translate(-878.043 1120.938)"/><path class="a" d="M834.049-1027.9h25.294v-22.486H834.049Zm2.539-19.947H856.8v17.407H836.588Z" transform="translate(-798.345 1145.114)"/><path class="a" d="M904.035-1050.385H878.741v22.486h25.294Zm-2.54,19.947H881.281v-17.407H901.5Z" transform="translate(-811.669 1145.114)"/><path class="a" d="M834.049-987.351h25.294v-22.486H834.049Zm2.539-19.947H856.8v17.407H836.588Z" transform="translate(-798.345 1133.026)"/><path class="a" d="M904.035-1009.837H878.741v22.486h25.294ZM901.5-989.89H881.281V-1007.3H901.5Z" transform="translate(-811.669 1133.026)"/><path class="a" d="M834.049-946.8h25.294v-22.486H834.049Zm2.539-19.947H856.8v17.407H836.588Z" transform="translate(-798.345 1120.938)"/><path class="a" d="M904.035-969.289H878.741V-946.8h25.294Zm-2.54,19.947H881.281V-966.75H901.5Z" transform="translate(-811.669 1120.938)"/><path class="a" d="M879.85-884.753h1.27v-41.879H854.573v41.879H879.85Z" transform="translate(-804.464 1108.221)"/><path class="a" d="M1103.793-884.753h1.27v-41.879h-26.547v41.879h25.277Z" transform="translate(-871.225 1108.221)"/><rect class="a" width="284.599" height="4.211" transform="translate(0 227.679)"/></svg>