<svg xmlns="http://www.w3.org/2000/svg" width="242.193" height="236.38" viewBox="0 0 242.193 236.38"><defs><style>.a{fill:none;}.b{fill:#bc1d3c;}</style></defs><g transform="translate(0 0)"><g transform="translate(0 0)"><path class="a" d="M2552.908-236.335h188.019a41.255,41.255,0,0,1-1.34-10.413,41.262,41.262,0,0,1,1.047-9.225H2552.908Z" transform="translate(-2526.979 449.336)"/><path class="a" d="M2549.322-351.375a41.234,41.234,0,0,1-1.093,9.424H2736v-19.638h-187.97A41.284,41.284,0,0,1,2549.322-351.375Z" transform="translate(-2525.249 486.805)"/><path class="b" d="M2528.464-397.822a15.76,15.76,0,0,0-15.742,15.742v35.859a15.763,15.763,0,0,0,13.966,15.639v8.132h206.975a7.579,7.579,0,0,1,7.57,7.57v35.859a7.579,7.579,0,0,1-7.57,7.57H2526.688v8.172h206.975a15.76,15.76,0,0,0,15.742-15.742v-35.859a15.762,15.762,0,0,0-13.966-15.638v-8.133H2528.464a7.578,7.578,0,0,1-7.569-7.57V-382.08a7.578,7.578,0,0,1,7.569-7.57h27.178a90.725,90.725,0,0,1-15.158-8.172Z" transform="translate(-2512.722 499.66)"/><path class="b" d="M2841.975-389.65v-8.172h-13.8a90.715,90.715,0,0,1-15.158,8.172Z" transform="translate(-2619.258 499.66)"/><path class="b" d="M2549.289-275.983v44.911h2.335V-241.1h188.7a40.836,40.836,0,0,0,3.554,7.951,1.936,1.936,0,0,0,1.675.961,1.932,1.932,0,0,0,.974-.264,1.937,1.937,0,0,0,.7-2.647,37.239,37.239,0,0,1-5.052-18.748,37.247,37.247,0,0,1,4.92-18.518,1.936,1.936,0,0,0-.716-2.642,1.937,1.937,0,0,0-2.643.716,40.892,40.892,0,0,0-3.774,8.885H2551.624v-10.577Zm190.061,12.911a41.261,41.261,0,0,0-1.047,9.225,41.255,41.255,0,0,0,1.34,10.413H2551.624v-19.638Z" transform="translate(-2525.695 456.435)"/><path class="b" d="M2543.021-370.721a40.864,40.864,0,0,0-3.619-8.15,1.936,1.936,0,0,0-2.648-.7,1.937,1.937,0,0,0-.7,2.647,37.234,37.234,0,0,1,5.052,18.747,37.249,37.249,0,0,1-4.919,18.518,1.937,1.937,0,0,0,.716,2.643,1.925,1.925,0,0,0,.961.257,1.935,1.935,0,0,0,1.681-.972,40.873,40.873,0,0,0,3.719-8.687h188.394v10.576H2734v-44.911h-2.335v10.028Zm188.64,21.973H2543.887a41.234,41.234,0,0,0,1.093-9.424,41.273,41.273,0,0,0-1.289-10.213h187.97Z" transform="translate(-2520.907 493.603)"/><path class="b" d="M2741.224-467.833l5.191,5.191a1.746,1.746,0,0,0,1.238.512,1.747,1.747,0,0,0,1.219-.493l5.51-5.339a1.752,1.752,0,0,0,.412-1.9l-3.839-9.8a4.9,4.9,0,0,0,1.611-3.628,4.919,4.919,0,0,0-2.978-4.515v-20.516a1.936,1.936,0,0,0-1.936-1.936c-.039,0-.074.009-.112.012L2631.7-555.533a1.752,1.752,0,0,0-1.275,0l-116.591,45.586a1.752,1.752,0,0,0-1.113,1.62,1.752,1.752,0,0,0,1.093,1.634l78.138,31.724,38.227,15.278a2.369,2.369,0,0,0,.883.17,2.367,2.367,0,0,0,.884-.17l38.235-15.281,75.536-30.668V-487.8a4.92,4.92,0,0,0-2.978,4.515,4.9,4.9,0,0,0,1.7,3.706l-3.619,9.908A1.751,1.751,0,0,0,2741.224-467.833Z" transform="translate(-2512.722 555.653)"/><path class="b" d="M2674.626-415.161a2.369,2.369,0,0,1-.883-.17l-38.227-15.278L2673.968-415a1.749,1.749,0,0,0,.659.128,1.744,1.744,0,0,0,.658-.128l38.46-15.615-38.235,15.281A2.367,2.367,0,0,1,2674.626-415.161Z" transform="translate(-2556.285 511.293)"/></g><path class="b" d="M2549.4-459.177V-430.5a7.046,7.046,0,0,0,2.65,5.511c7.885,6.292,34.327,23.075,92.023,23.075s84.137-16.783,92.022-23.075a7.045,7.045,0,0,0,2.651-5.511v-28.673l-92.49,36.965a5.883,5.883,0,0,1-4.366,0Z" transform="translate(-2525.736 521.426)"/></g></svg>