<svg xmlns="http://www.w3.org/2000/svg" width="284.599" height="260.35" viewBox="0 0 284.599 260.35"><defs><style>.a{fill:#ab1d37;}</style></defs><rect class="a" width="284.599" height="4.211" transform="translate(0 256.139)"/><g transform="translate(26.354 0)"><path class="a" d="M1635.127-1180.349h35.139v25.652h-35.139Zm0,28.46h35.139v25.652h-35.139Zm0,28.46h35.139v25.652h-35.139Zm0,28.46h35.139v25.652h-35.139Zm0,28.46h35.139v25.652h-35.139Zm0,28.46h35.139v25.652h-35.139Zm0,28.46h35.139v25.652h-35.139Z" transform="translate(-1479.832 1212.318)"/><rect class="a" width="35.139" height="25.652" transform="translate(155.295 88.889)"/><rect class="a" width="35.139" height="25.652" transform="translate(155.295 117.349)"/><rect class="a" width="35.139" height="25.652" transform="translate(155.295 145.809)"/><rect class="a" width="35.139" height="25.652" transform="translate(155.295 202.728)"/><rect class="a" width="35.139" height="25.652" transform="translate(155.295 174.269)"/><rect class="a" width="35.139" height="25.652" transform="translate(155.295 31.969)"/><rect class="a" width="35.139" height="25.653" transform="translate(155.295 60.429)"/><path class="a" d="M1635.127-896.513v20.739h16.166v-20.739Z" transform="translate(-1479.832 1127.702)"/><path class="a" d="M1678.324-893.114v-3.4h-16.166v20.739h16.166v-17.34Z" transform="translate(-1487.89 1127.702)"/><path class="a" d="M1580.275-973.969h34.437v-20.739h-34.438v-2.807h34.438v-25.652h-34.438v-2.807h34.438v-25.652h-34.438v-2.807h34.438v-25.652h-34.438v-2.808h34.438v-25.652h-34.438v-2.807h34.438v-25.652h-34.438v-2.807h34.438v-25.653h-34.438v-2.807h34.438v-25.652h-34.438v-2.808h34.438v-24.248h2.808v24.248h35.139v-24.248h2.808v24.248H1690.6v2.808h-35.139v25.652H1690.6v2.807h-35.139v25.653H1690.6v2.807h-35.139v25.652H1690.6v2.807h-35.139v25.652H1690.6v2.808h-35.139v25.652H1690.6v2.807h-35.139v25.652H1690.6v2.807h-35.139v25.652H1690.6v2.807h-35.139v20.739h38.649V-1225.9h-118.05v251.928Z" transform="translate(-1462.224 1225.897)"/><path class="a" d="M1418.083-1144.09h24.248v190.8h4.211v-190.8h24.249v190.8H1475v-190.8h24.248v190.8h27.757v-166.548h-23.546v-28.46H1475v-8.242h-32.671v8.242h-28.46v195.008h4.211Z" transform="translate(-1413.871 1205.221)"/></g></svg>