<svg xmlns="http://www.w3.org/2000/svg" width="231.89" height="237.265" viewBox="0 0 231.89 237.265"><defs><style>.a{fill:#ab1d37;}</style></defs><path class="a" d="M1933.035-929.282h231.89v-174.971h-231.89Zm4.211-170.76h223.467v166.548H1937.246Z" transform="translate(-1933.035 1166.547)"/><path class="a" d="M2110.709-1091.476h-2.541v34.558h-44.34a46.165,46.165,0,0,0-10.04-12.1v-22.46h-2.54v20.432a45.59,45.59,0,0,0-27.19-8.963,45.588,45.588,0,0,0-27.189,8.963v-20.432h-2.54v22.46a46.166,46.166,0,0,0-10.04,12.1h-39.383v2.54h38.022a45.551,45.551,0,0,0-4.71,20.211,45.561,45.561,0,0,0,4.57,19.938h-37.883v2.539h39.226a46.131,46.131,0,0,0,10.2,12.37v27.781h-49.422V-969h49.422v35.1h2.54V-969h54.379v35.1h2.54V-969h54.379v35.1h2.541V-969h49.762v-2.539h-49.762v-40.15h49.762v-2.539h-49.762v-40.15h49.762v-2.54h-49.762Zm-128.277,57.309a41.675,41.675,0,0,1,41.628-41.629,41.675,41.675,0,0,1,41.628,41.629,41.675,41.675,0,0,1-41.628,41.627A41.675,41.675,0,0,1,1982.432-1034.167Zm14.438,62.628V-997.29a45.588,45.588,0,0,0,27.189,8.962,45.591,45.591,0,0,0,27.19-8.962v25.752Zm111.3,0H2053.79v-27.781a46.138,46.138,0,0,0,10.2-12.37h44.183Zm0-42.69h-42.84a45.559,45.559,0,0,0,4.57-19.938,45.552,45.552,0,0,0-4.709-20.211h42.979Z" transform="translate(-1936.575 1162.738)"/><rect class="a" width="59.188" height="45.502" transform="translate(57.755 105.82)"/><path class="a" d="M2134.115-1173.4H2127.6v-12.138a7.475,7.475,0,0,0-7.467-7.467,7.475,7.475,0,0,0-7.467,7.467v12.138h-57.211v-12.138a7.475,7.475,0,0,0-7.467-7.467,7.475,7.475,0,0,0-7.467,7.467v12.138H1985.3v-12.138a7.475,7.475,0,0,0-7.467-7.467,7.475,7.475,0,0,0-7.467,7.467v12.138h-6.518a30.845,30.845,0,0,0-30.81,30.81v6.964h231.89v-6.964A30.844,30.844,0,0,0,2134.115-1173.4Z" transform="translate(-1933.035 1193.006)"/></svg>