<svg xmlns="http://www.w3.org/2000/svg" width="284.599" height="286.705" viewBox="0 0 284.599 286.705"><defs><style>.a{fill:#ab1d37;}</style></defs><g transform="translate(0 0)"><path class="a" d="M1639.505-405.064h-14.23v-52.709h14.23v-4.211H1637.4V-472h2.106v-4.211h-16.193a116.559,116.559,0,0,0-40.991-40.9,115.772,115.772,0,0,0-57.358-15.956v-8.718l28.01-.079-9-9,8.626-8.625h-30.446v26.42a115.773,115.773,0,0,0-57.358,15.957,116.556,116.556,0,0,0-40.991,40.9h-16.192V-472h2.106v10.019h-2.106v4.211h14.231v52.709h-14.231v4.211h231.891Zm-18.441,0h-10.019v-52.708h10.019Zm-14.23,0h-27.807v-52.709h27.807Zm-124.512-52.708v52.708H1472.3v-52.708Zm4.211,0h27.806v52.709h-27.806Zm32.017,0h10.019v52.708h-10.019Zm14.23,0h27.806v52.709h-27.806Zm32.018,0h10.018v52.708H1564.8Zm-96.707,0v52.709h-27.806v-52.709Zm-42.035,0h10.018v52.708h-10.018Z" transform="translate(-1381.261 559.488)"/><rect class="a" width="284.599" height="4.211" transform="translate(0 282.493)"/><path class="a" d="M1411.826-225.94h36.853v-9.324h-7v-78.722h7v-9.277h19.035v9.277h8.393v78.722h-8.393v9.324h41.064v-9.324h-7v-78.722h7v-9.277h29.563v9.277h8.393v78.722h-8.393v9.324h41.064v-9.324h-7v-78.722h7v-9.277h19.035v9.277h8.393v78.722h-8.393v9.324h41.064v-9.324h-7v-78.722h7v-13.489H1407.615v13.489h8.393v78.722h-8.393v9.324Zm216.469-9.324h-17.249v-78.722H1628.3Zm-60.1,0h-17.25v-78.722h17.25Zm-70.628,0h-17.249v-78.722h17.249Zm-77.349-78.722h17.25v78.722h-17.25Z" transform="translate(-1381.261 490.32)"/><path class="a" d="M1389.447-166.562h258.244v-10.72H1387.342v10.72h2.106Z" transform="translate(-1375.217 445.546)"/></g></svg>