<svg xmlns="http://www.w3.org/2000/svg" width="261.629" height="222.225" viewBox="0 0 261.629 222.225"><defs><style>.a{fill:#bc1d3c;}</style></defs><g transform="translate(0 0)"><g transform="translate(19.738 0)"><path class="a" d="M2077.069-400.682l-31.7,67.082a10.96,10.96,0,0,1-9.816,6.277,10.914,10.914,0,0,1-9.921-6.109l-19.994-40.513-10.6,19.98a10.962,10.962,0,0,1-9.682,5.824h-32.789c27.011,49.163,77.841,89.31,90.886,98.972a5.229,5.229,0,0,0,6.227,0,404.024,404.024,0,0,0,62.25-58.09,10.927,10.927,0,0,1-2.226-3.66Z" transform="translate(-1935.477 470.365)"/><path class="a" d="M1986.912-441.446a10.961,10.961,0,0,1,9.681-5.823h.161a10.96,10.96,0,0,1,9.667,6.108l19.427,39.365,33.229-70.326a10.931,10.931,0,0,1,10.417-6.265,10.959,10.959,0,0,1,9.792,7.2l31.089,85.491,5.321-15.318a10.96,10.96,0,0,1,10.353-7.363h15.418a106.518,106.518,0,0,0,6.97-36.564,63.741,63.741,0,0,0-63.741-63.741,63.58,63.58,0,0,0-47.653,21.414,63.286,63.286,0,0,0-47.521-21.414,63.445,63.445,0,0,0-63.445,63.444,107.357,107.357,0,0,0,7.023,36.86h36.27Z" transform="translate(-1926.077 508.679)"/></g><g transform="translate(0 39.304)"><path class="a" d="M2099.759-329.43a1.936,1.936,0,0,1-1.819-1.274L2057.9-440.8l-40.941,86.647a1.937,1.937,0,0,1-1.734,1.109h-.016a1.935,1.935,0,0,1-1.736-1.079l-27.8-56.323L1966.82-374.9a1.936,1.936,0,0,1-1.71,1.029h-69.623v-3.871h68.458l20.086-37.867a1.871,1.871,0,0,1,1.738-1.029,1.939,1.939,0,0,1,1.708,1.079l27.695,56.12,41.212-87.219a1.926,1.926,0,0,1,1.839-1.107,1.936,1.936,0,0,1,1.73,1.272l39.764,109.345,13.651-39.295a1.936,1.936,0,0,1,1.829-1.3h41.919v3.871h-40.542l-14.986,43.138a1.936,1.936,0,0,1-1.814,1.3Z" transform="translate(-1895.487 447.764)"/></g></g></svg>